<svg id="Слой_1" data-name="Слой 1" xmlns="http://www.w3.org/2000/svg" viewBox="0 0 28 28"><defs><style>.cls-1{fill:#ebb70d;}.cls-2{fill:#43800f;}.cls-3{fill:#f3d325;}.cls-4{fill:#f4e470;}.cls-5{fill:#85b644;}.cls-6{fill:#fdfdfc;}</style></defs><path class="cls-1" d="M21.45,20.74h.06c.08-.23.27-.2.45-.2h0v0a.42.42,0,0,1,.21-.33c.12-.09.18-.2,0-.3a.33.33,0,0,1-.14-.45c.15-.36.13-.48-.27-.29-.07,0-.16,0-.15-.07.06-.37-.24-.4-.47-.5.18-.21.4.1.57-.08-.23-.16-.45-.3-.64-.46s-.17-.12-.28-.06a.23.23,0,0,0-.15.21c0,.13.15.09.23.1s.18.07.14.19-.08.19-.2.14a.78.78,0,0,1-.45-.44c0-.07.11-.2,0-.21s-.09.15-.11.24,0,.14-.07.18-.25-.36-.36,0a.17.17,0,0,1-.25.08c-.05-.27-.65,0-.48-.48,0-.07-.13-.06-.2-.05s-.29-.05-.33-.24-.14-.31-.32-.09-.18.15-.26.05.08-.32.08-.5.13,0,.18.06c.2.18.31-.09.47-.09a.1.1,0,0,0,0-.15c-.1-.16-.24-.06-.38,0s0,0-.05-.06l.2-.31a.38.38,0,0,0-.14-.54c-.16-.1-.18.13-.22.26s-.12.12-.16,0a.47.47,0,0,1,.12-.6c.21-.15.5-.29.66-.1s.54,0,.67.35c0,0,.12-.07.06-.16s-.15-.2,0-.21.37-.46.66-.13c0,0,.11,0,.15-.05.2-.21.46-.1.69-.12.07,0,.15,0,.14.11s-.06.09-.12.09-.3.1-.46.15-.11.17,0,.17c.33,0,.4.33.66.41.07,0,.13.13.2,0s-.06-.11-.1-.16-.22-.16-.13-.31a.47.47,0,0,1,.36-.28.21.21,0,0,1,.22.14c.06.13-.06.11-.13.14s-.1.1,0,.19c.27.27.62.45.77.84a.13.13,0,0,0,.23,0c.09-.11.23-.2.24-.37s.1-.19.2-.26a4.66,4.66,0,0,0,1.21-.81,2.39,2.39,0,0,1,.35-.28c.15-.1.25-.11.26.13s-.08.3.14.32a.39.39,0,0,0,.4-.26c.05-.15.17-.35.26-.31s.48,0,.58.3c0,.08.06.14.16.13s.09-.08.12-.14c.25-.42.74-.59,1-1h.07a1.64,1.64,0,0,1-.06-.58,3.38,3.38,0,0,0-1-.49c0,.08.14.11.09.2s-.13.07-.21,0l-.2,0c-.08,0-.21.05-.2-.1s.11-.14.2-.15a.8.8,0,0,1,.26.05c0-.16-.22-.12-.21-.27s-.24,0-.25-.14c0-.32-.26-.25-.44-.29a.28.28,0,0,1-.35.19c-.16,0-.14.07-.14.16.21.1.49,0,.66.23a.26.26,0,0,1-.34.09.81.81,0,0,0-.39-.12c-.13.12.14.31-.07.42a.53.53,0,0,0,.42.15c.23-.24.4-.21.58.11-.22.09-.37-.21-.58-.12,0,.08.1.17,0,.24a.38.38,0,0,1-.41,0q0,.08-.06,0h-.07l-.5.08c-.2,0-.3-.05-.28-.26l-.27,0h-.07l-.21-.06c-.12-.11-.37-.18,0-.31a1,1,0,0,1,.75,0l.08.08c.1,0,.2,0,.27.07h.21a1.64,1.64,0,0,1-.35-1c-.2-.06-.41.16-.61,0a1.32,1.32,0,0,1-.44,0c-.29,0-.37-.18-.26-.45,0,0,0-.09-.08-.1s-.36-.06-.29-.24.26,0,.4,0h0v-.15a.51.51,0,0,0-.31-.19c-.09,0-.25,0-.23-.11s.16-.08.25-.11c.1-.2-.24-.35-.05-.56h0c-.12,0-.26,0-.24.19.06.35-.23.25-.39.32s-.3,0-.43-.08a1.3,1.3,0,0,1-.48-.07c-.17,0-.42.21-.5-.06,0-.1.24-.23.43-.23.12-.2.14-.35-.17-.34a2,2,0,0,0-.84.11c-.1.05-.25.16-.38,0a10.1,10.1,0,0,1-2.9-.5c-.08,0-.19,0-.25.07s.28,0,.18.22-.21.07-.32.07-.14-.07-.21-.12-.31-.2-.4.08-.18.12-.29.09-.19-.08-.27,0c0,.32.18.7-.2.95-.11.18-.38.28-.24.58,0,.07-.15.15-.19,0-.1-.3-.29-.16-.47-.13v.14c.16.38.11.5-.21.54l-.14.14c0,.06,0,.15,0,.17a.87.87,0,0,0-.44.64.13.13,0,0,1-.17.07c-.08,0-.17-.09-.17-.2a1.26,1.26,0,0,1,0-.27c-.18,0-.25.13-.35.24s-.11.13-.21.12l-.28.15v.24c0,.25-.25.34-.33.54s-.2-.06-.29,0a.72.72,0,0,0-.41.34c0,.06-.14.21,0,.27s.15.21.16.35a.48.48,0,0,0,.26.35c.15.08.2-.14.29-.21.16.09.14.36.38.36,0-.13-.1-.27.07-.35s.15,0,.21.09.15.39.43.19c0,0,.07.12.1.19s.19.39.44.38.27.06.15.26.17.25.23.39.1.17.17.1c.38-.33.6-.18.78.21,0,.05.14,0,.13.14s-.22.08-.29-.06-.27,0-.4,0-.09.09-.1.16.13.16.22.21,0,0,0,.14c-.15-.25-.39.32-.5-.14,0,0-.07,0-.09,0-.12.17-.4.08-.51.31s-.19,0-.28,0-.15-.06-.14-.14.13-.07.2-.09.1,0,.08-.08-.06-.1-.08-.1c-.21,0-.33-.18-.52-.21-.08.12.16.19,0,.27s-.15-.09-.23-.14-.22-.13-.31,0c-.31.34-.48,0-.65-.15a.43.43,0,0,0-.57,0c-.09.1-.19.2-.29,0a.35.35,0,0,0-.18-.16.29.29,0,0,0-.41.13c-.08.16,0,.22.19.24s.14.13.12.22a.93.93,0,0,0,.1.69c.07.12.06.21-.12.16s-.25.09-.26.25l.08.14c.14,0,.14.1.13.2s.22.07.2.23a7.72,7.72,0,0,0,3.32,1.63,17.72,17.72,0,0,0,4.47.5,6.74,6.74,0,0,0,2.87-.55C21.19,20.66,21.34,20.73,21.45,20.74Zm-6.14-8.43h0c-.11-.37.2-.54.37-.79,0,.2.28.4,0,.59l0,.21c.13.22-.1.2-.19.25a.18.18,0,0,1-.26-.07C15.15,12.4,15.19,12.33,15.31,12.31Zm-2.15,2.23c.09,0,.25,0,.25.1s.16.4.06.61c0,0-.08,0-.12,0s-.11-.06-.12-.14-.05-.41-.07-.61c-.2,0-.24-.15-.25-.33A.29.29,0,0,1,13.16,14.54ZM14.68,16a.17.17,0,0,1,.17.09.07.07,0,0,1,0,.09c-.17.08-.26.25-.39.37s-.41.06-.43-.09c0-.37-.27-.49-.54-.62-.1-.05-.14-.13-.08-.23s.15-.09.22,0a.47.47,0,0,0,.24.13c.14,0,.27.06.22.29s.11.28.3.14S14.55,16,14.68,16Zm3.47-4.86C18,11.21,18,11.08,18,11s0-.15.07-.12.28-.09.42-.15.33-.14.28.16a.3.3,0,0,0,0,.13c0,.07.24,0,.16.14s-.21.09-.34.08S18.32,11.06,18.15,11.14Zm3,.82c.55-.19.55-.19.82.4C21.62,12.14,21.34,12.15,21.1,12Zm-9.81,5.43a.78.78,0,0,0,.13.19c.12.11.15.22,0,.33s-.17.23-.28.14,0-.23,0-.34S11.17,17.5,11.29,17.39Zm7.86-2.15c0-.16.2-.16.33-.19s.22,0,.19.14-.28.06-.41.15S19.15,15.33,19.15,15.24Zm.7-.32c0-.26.08-.32.26-.31s.17,0,.17.07-.2.1-.29.17Zm-.71-4.27c.06,0,.17,0,.17.12s-.11.13-.2.15a.12.12,0,0,1-.17-.11C18.92,10.69,19,10.65,19.14,10.65Zm-2.11.1c.15-.06.29-.16.46-.06a.14.14,0,0,1,0,.09.38.38,0,0,1-.44,0S17,10.79,17,10.75Zm5.84,1.73c-.11,0-.16-.13-.27,0s-.13.11-.2,0,0-.07,0-.09a.29.29,0,0,1,.24-.1A.25.25,0,0,1,22.87,12.48Zm-7.76,4.2a.42.42,0,0,1-.19-.29.1.1,0,0,1,.13-.08.4.4,0,0,1,.18.27C15.24,16.64,15.19,16.68,15.11,16.68Zm6.63-4.15a.26.26,0,0,1,.24-.14c.08,0,.15,0,.13.12s-.14.09-.22.13S21.76,12.62,21.74,12.53Zm-3,.4c0-.15.15,0,.21-.09s.14,0,.12.1-.1.14-.2.13S18.73,13,18.72,12.93Zm1.45-1.19c0,.1-.12.09-.2.08s-.14-.06-.13-.16.06-.1.12-.07S20.16,11.6,20.17,11.74ZM16,10.88c0-.12.15-.08.23-.11s.1,0,.1.09-.09.14-.19.14S16,11,16,10.88Z"/><path class="cls-2" d="M5.77,11.54a2.5,2.5,0,0,0-1.4.7c.1.1.1.11-.1.21s-.19.09-.13.23.16.05.26,0a1.63,1.63,0,0,1,1.29.18,8,8,0,0,1-1.28,0c-.24,0-.55-.18-.71.17a.11.11,0,0,1,0,.14h0l0-.15c-.21,0-.36.17-.56.14a12.48,12.48,0,0,0-1.21,1.9c-.21.52-.45,1-.62,1.56a1,1,0,0,0,0,.8.22.22,0,0,1,0,.14,2.73,2.73,0,0,0,0,1.55,1.38,1.38,0,0,0,.33.66,1.54,1.54,0,0,1,.36.75c.08.34.37.55.48.88a4.45,4.45,0,0,1,.17,1c0,.16,0,.39.2.42s.44.15.65-.11A6.76,6.76,0,0,1,4.34,22s0,0,0,0c.85-.07,1.39-.75,2.11-1.08A1.44,1.44,0,0,0,7,20.31a7.11,7.11,0,0,0,1.32-2.49,2.49,2.49,0,0,1,.38-.69A7.37,7.37,0,0,1,9,15.52v-.28a5.55,5.55,0,0,0,0-.91A9.83,9.83,0,0,0,8.67,13a2.44,2.44,0,0,0-1-1.46c-.26-.11-.42-.08-.5.24a1.05,1.05,0,0,1-.15.43,8,8,0,0,0-.92,1.91C5.54,15.57,5,17,4.49,18.45c-.33.91-.68,1.81-.94,2.75a3.68,3.68,0,0,1-.37,1.28.26.26,0,0,1,0-.21,28.93,28.93,0,0,1,1.14-3.75c.79-2.14,1.54-4.29,2.46-6.38.1-.23.26-.44.19-.72l-.46,0H6.31l-.24,0C6,11.62,5.89,11.55,5.77,11.54ZM3.91,13.77c.29.05.6-.13.89.07a.73.73,0,0,1-.9-.06l0-.07,0,0ZM6.69,19A.89.89,0,0,0,7,18.66c.06.11.13.19.17.28s.12.61,0,.64c-.35.09-.38.4-.57.6a.93.93,0,0,1-.53.35c-.13,0-.15,0-.18-.12s0-.38.21-.49c.37-.19.77-.39.56-.94l0,0h0A0,0,0,0,0,6.69,19Zm.69-.36A1.08,1.08,0,0,1,6.76,18c0-.06,0-.12.07-.14s.08,0,.12,0,.31.46.64.24c0,0,.09,0,.1.07S7.47,18.63,7.38,18.63Zm.46-2.06a.09.09,0,0,1,.09.08c0,.17.27.24.15.51a1.51,1.51,0,0,0,0,.61.09.09,0,0,1-.12.09.07.07,0,0,1,0-.11c.21-.26,0-.42-.15-.58s.14-.39,0-.58Zm1-1.45a1.88,1.88,0,0,0-.09-.19c-.27.06-.16-.14-.15-.22s.11-.22.21-.19.12.17.11.29A2.37,2.37,0,0,1,8.82,15.12ZM4.54,13.39l-.47,0c-.09,0-.18,0-.12-.14s.06-.17.17-.1S4.41,13.22,4.54,13.39Zm2.61,3.09a.52.52,0,0,1-.34-.34c0-.06.05-.07.09-.07.2,0,.18.21.25.33S7.15,16.42,7.15,16.48Zm0,.4c.07,0,.14.07.13.15s-.05.06-.07,0S7.18,17,7.19,16.88Z"/><path class="cls-3" d="M7.66,11.56a2.44,2.44,0,0,1,1,1.46,9.83,9.83,0,0,1,.38,1.31c.14,0,.17.11.22.22.1.27.06.59.25.81s.07.56.21.8c-.38-.21-.44-.64-.72-.92v.28a4.87,4.87,0,0,1,.45.84c.08.22.28.48,0,.73-.12.09,0,.82,0,.95s.39.34.36.63a.08.08,0,0,0,0,0h.22c0-.16,0-.32.26-.25s.19,0,.12-.16a.93.93,0,0,1-.1-.69c0-.09,0-.2-.12-.22s-.27-.08-.19-.24a.29.29,0,0,1,.41-.13.35.35,0,0,1,.18.16c.1.19.2.09.29,0a.43.43,0,0,1,.57,0c.17.13.34.49.65.15.09-.1.21,0,.31,0s.11.23.23.14-.12-.15,0-.27c.19,0,.31.24.52.21,0,0,.07.06.08.1s0,.07-.08.08-.19,0-.2.09.08.11.14.14.23.11.28,0,.39-.14.51-.31c0,0,.09,0,.09,0,.11.46.35-.11.5.14,0-.1,0-.13,0-.14s-.24,0-.22-.21,0-.17.1-.16.28-.17.4,0,.19.07.29.06-.11-.09-.13-.14c-.18-.39-.4-.54-.78-.21-.07.07-.14,0-.17-.1s-.37-.14-.23-.39.12-.29-.15-.26-.36-.18-.44-.38-.06-.22-.1-.19c-.28.2-.31-.09-.43-.19s-.11-.14-.21-.09,0,.22-.07.35c-.24,0-.22-.27-.38-.36-.09.07-.14.29-.29.21a.48.48,0,0,1-.26-.35c0-.14,0-.26-.16-.35s0-.21,0-.27a.72.72,0,0,1,.41-.34c.09,0,.23.18.29,0s.33-.29.33-.54V13.5c-.14,0-.33,0-.24-.23,0-.08,0-.13-.08-.16a.13.13,0,0,0-.18,0c-.12.2-.26.19-.44.09a.2.2,0,0,0-.2,0s0,.1,0,.12c.31.21,0,.35,0,.6-.08-.25-.17-.36-.37-.34a.23.23,0,0,1-.21-.15c-.21-.35-.7-.57-.47-1.11,0,0,0-.11-.05-.16a1.09,1.09,0,0,1,0-1.05.21.21,0,0,0-.05-.25c-.09-.08-.14,0-.2.07s-.08.09-.17,0c.22-.39.29-.88.79-1.08a.37.37,0,0,0,.23-.23c.15-.38.21-.84.79-.81a.14.14,0,0,0,.08-.06c.29-.41.56-.09.9,0-.2.12-.35.05-.49.08s-.19.43,0,.52.2-.12.31-.14,0,.26.13.34a3,3,0,0,1,.39-.22c.09-.05.21-.14.28-.05s.42.17.63.23.54.39.39.64,0,.25.08.34.31.44.09.7-.14.4.16.48.37-.17.47.13c0,.11.22,0,.19,0-.14-.3.13-.4.24-.58,0,0-.1,0-.11-.07a3.65,3.65,0,0,1,.07-1l.06,0c.07.06.06.18.18.19s.17-.06.27,0,.24.07.29-.09.25-.17.4-.08.12.12.21.12.25,0,.32-.07-.19-.09-.18-.22.17,0,.25-.07c-.15-.27-.36-.57-.68-.43s-.41.05-.51-.2c0-.09-.08-.17-.11-.25a1.85,1.85,0,0,1-.19-.8A.2.2,0,0,0,15.25,8c-.21,0-.08.14-.08.23s0,.15-.08.16a.24.24,0,0,1-.26-.14,1.06,1.06,0,0,1-.06-.68c.05-.17,0-.29-.15-.31s-.22.1-.21.25-.05.23-.21.19a.18.18,0,0,1-.12-.27c.11-.19.12-.49.47-.42a.25.25,0,0,0,.26-.2.4.4,0,0,1,.2-.27c.2-.11.28-.23.13-.46s-.12-.42,0-.41.5,0,.74,0,.13,0,.1.13-.05.17.07.2.14,0,.18-.14a.35.35,0,0,1,.63,0c.06.09.13.08.2.1h0a.85.85,0,0,1,.74-.21s0,.09,0,.13h.06c.12-.07.39.1.39-.13S18,5.4,17.78,5.4l-.13,0a.16.16,0,0,1-.18-.13h-.12a1.48,1.48,0,0,1-.21,0,8.29,8.29,0,0,0-2.63.07,6.73,6.73,0,0,0-1.76.52A7.91,7.91,0,0,0,11,7c-.31.27-.6.57-.91.85,0,.13-.1.19-.2.26v.07c-.07.21-.12.42-.4.42v0A.56.56,0,0,1,9.4,9,3.38,3.38,0,0,0,9,10.11a4.77,4.77,0,0,1-.16.73c-.06.2-.29.39-.21.58s-.05.39-.1.57-.07.11-.15.06A1.41,1.41,0,0,1,8,11c.15-.28.12-.59.24-.87-.11-.06-.19,0-.25.09a1.13,1.13,0,0,1-.23.4h0a.07.07,0,0,1,0,.06C7.75,11,7.47,11.24,7.66,11.56Zm7-5.84c.16,0,.16.11.19.2s.06.19,0,.19-.29.12-.44.16-.26.05-.19-.12A.69.69,0,0,1,14.66,5.72ZM10.5,14c-.16,0-.49-.33-.47-.49a.15.15,0,0,1,.06-.11.1.1,0,0,1,.14.06c.06.16.14.28.34.28s.08.1.07.17S10.56,14,10.5,14Zm3.21-5.93c0-.11.09-.23.19-.21s.27.1.27.25a.27.27,0,0,1-.25.24C13.77,8.32,13.76,8.16,13.71,8.05Zm-1,7.93c0,.09.05.25-.08.25s-.23-.17-.25-.31.13-.15.21-.16S12.65,15.89,12.67,16Zm-1.08-2.35c.11,0,.24,0,.22.16a.33.33,0,0,1-.26.25c-.13,0-.13-.09-.14-.18S11.43,13.62,11.59,13.63Zm3.1-5c-.16,0-.33.09-.4-.11a.12.12,0,0,1,.09-.16C14.64,8.25,14.52,8.59,14.69,8.61ZM11.6,16.48c-.08,0-.18,0-.14-.12s0-.21.13-.21.14.11.16.2S11.68,16.48,11.6,16.48Zm2.79-9.91c0,.16-.1.24-.23.25a.07.07,0,0,1-.08-.08C14.13,6.62,14.24,6.58,14.39,6.57Z"/><path class="cls-4" d="M17.05,5.86c-.07,0-.14,0-.2-.1a.35.35,0,0,0-.63,0c0,.09-.07.17-.18.14S16,5.79,16,5.71s0-.13-.1-.13-.49,0-.74,0-.06.3,0,.41.07.35-.13.46a.4.4,0,0,0-.2.27.25.25,0,0,1-.26.2c-.35-.07-.36.23-.47.42a.18.18,0,0,0,.12.27c.16,0,.22,0,.21-.19s.06-.27.21-.25.2.14.15.31a1.06,1.06,0,0,0,.06.68.24.24,0,0,0,.26.14c.09,0,.08-.09.08-.16S15,8,15.25,8a.2.2,0,0,1,.19.24,1.85,1.85,0,0,0,.19.8c0,.08.08.16.11.25.1.25.19.34.51.2s.53.16.68.43a10.1,10.1,0,0,0,2.9.5c0-.17,0-.44-.24-.38-.35.09-.33-.06-.31-.29s-.29-.18-.37-.36-.2-.05-.25.09-.13.15-.19.08c-.19-.24-.48-.19-.72-.25a.26.26,0,0,1-.17-.11A.88.88,0,0,0,17,8.69a.91.91,0,0,1,.82.13c.25.14.48.34.86.17.19-.09.54.13.82-.05,0,0,.05,0,.08.05.24.11.27.43.53.52.08,0,0,.11-.05.16s-.16.16-.07.24.16-.05.22-.11.22-.19.43,0a1,1,0,0,0,.77.3c0-.14-.21-.15-.16-.31a1.73,1.73,0,0,1,.75-.1c.07,0,.18,0,.2.07s-.07.14-.13.18a1.08,1.08,0,0,1-.66.16c0,.17-.08.37.12.47s.34-.05.49-.17a.6.6,0,0,1,.79.11h0c.21,0,.34.32.62.13a.17.17,0,0,1,.11.3c-.09.08-.13.15,0,.25s.06.11,0,.15a.13.13,0,0,1-.15-.05.64.64,0,0,0-.48-.22c-.09,0-.24,0-.25.11s.14.09.23.11a.51.51,0,0,1,.31.19c.18,0,.26.25.41.21a.57.57,0,0,1,.62.17c.08.08.25,0,.19,0s-.13-.35-.2-.52-.19,0-.11-.14.13-.05.21,0a1,1,0,0,0,.55,0c.15,0,.43,0,.4-.21s-.28-.12-.47-.09a1.51,1.51,0,0,1-1.19-.4c-.14-.1-.07-.23,0-.33s.16,0,.22.06.18.08.27,0,.14-.12.21,0a.18.18,0,0,1,0,.27c-.1.14,0,.22.12.17s.44.13.37-.24c0,0,.08-.13.13-.14.32-.06.24-.15,0-.28s-.17-.29-.26-.44c.12,0,.11-.27.3-.2A2.5,2.5,0,0,0,24,8a5.86,5.86,0,0,1-.5-.37,6.6,6.6,0,0,0-2.26-1.35,17.79,17.79,0,0,0-3.36-1c-.12,0-.25-.06-.36,0a.16.16,0,0,0,.18.13l.13,0c.21,0,.48,0,.49.26s-.27.06-.39.13a.54.54,0,0,1-.6.39C17.1,6.16,17,6.09,17.05,5.86Zm3.25.83c.05,0,.09,0,.12,0a.75.75,0,0,0,.64.27s.1.06.07.09a1.37,1.37,0,0,1-.25.29c-.08.06-.15,0-.21-.08l-.17-.22c-.06-.07-.12-.2-.24-.12s0,.18,0,.25.12.2,0,.29a.29.29,0,0,0-.17.24c0,.2-.17.18-.28.09a3.31,3.31,0,0,0-.47-.29c-.1-.06-.21-.18-.09-.27C19.58,7,20,7,20.3,6.69ZM18,9.89c-.19-.21-.57-.1-.8-.39s-.42-.5-.77-.36S16,9,15.9,8.89a.46.46,0,0,1-.1-.56c0-.06,0-.11.12-.1s.08.07.09.13c.13.55.13.55.68.55.21,0,.52,0,.57.15.13.41.5.38.78.51.07,0,.16,0,.23,0a.14.14,0,0,1,.09.09s0,.08-.08.09ZM18.83,7a.25.25,0,0,1-.38-.24c0-.15.08-.31.29-.18s.15,0,.21-.07a1,1,0,0,1,.45-.15c.08,0,.2.06.13.12a2.23,2.23,0,0,0-.32.5C19.13,7.12,19,7,18.83,7Zm3.09,1.07c-.18-.08-.32.11-.46,0a.86.86,0,0,0-.59-.25c-.12,0-.2-.19-.17-.19a7.45,7.45,0,0,1,.8-.14C21.53,7.71,21.84,7.77,21.92,8.06Zm1.83,0a.58.58,0,0,1,.25.42c0,.08,0,.21-.1.17s-.23-.27-.3-.43S23.61,8,23.75,8ZM23.3,9.88c-.1-.12-.32-.13-.39-.31s.08-.1.15-.1a.38.38,0,0,1,.38.27C23.46,9.81,23.42,9.88,23.3,9.88Zm-.59-.79c.37-.05.66-.05.69,0a.08.08,0,0,1,0,.11.72.72,0,0,1-.62-.06ZM18,8.5c0-.06,0-.12.06-.13a.62.62,0,0,1,.46.07s.07.07,0,.12a.09.09,0,0,1-.14,0C18.28,8.53,18.08,8.63,18,8.5ZM19.05,10a.17.17,0,0,1-.25,0c-.1-.05-.3,0-.25-.17s.18,0,.27,0S19,9.92,19.05,10ZM16.39,8.4a.14.14,0,0,1,.16-.1.09.09,0,0,1,.07.1c0,.08-.08.1-.16.09A.08.08,0,0,1,16.39,8.4Z"/><path class="cls-3" d="M27.57,14.29H27.5c-.25.42-.74.59-1,1,0,.06,0,.14-.12.14s-.13,0-.16-.13c-.1-.27-.38-.23-.58-.3s-.21.16-.26.31a.39.39,0,0,1-.4.26c-.22,0-.14-.2-.14-.32s-.11-.23-.26-.13a2.39,2.39,0,0,0-.35.28,4.66,4.66,0,0,1-1.21.81c-.1.07-.2.13-.2.26s-.15.26-.24.37a.13.13,0,0,1-.23,0c-.15-.39-.5-.57-.77-.84-.09-.09-.11-.14,0-.19s.19,0,.13-.14a.21.21,0,0,0-.22-.14.47.47,0,0,0-.36.28c-.09.15.06.22.13.31s.18,0,.1.16-.13,0-.2,0c-.26-.08-.33-.42-.66-.41-.08,0-.07-.14,0-.17s.29-.16.46-.15.12,0,.12-.09-.07-.12-.14-.11c-.23,0-.49-.09-.69.12,0,0-.11.09-.15.05-.29-.33-.43.12-.66.13s0,.14,0,.21-.05.2-.06.16c-.13-.3-.48-.12-.67-.35s-.45-.05-.66.1a.47.47,0,0,0-.12.6c0,.09.13.09.16,0s.06-.36.22-.26a.38.38,0,0,1,.14.54l-.2.31s0,.06.05.06.28-.12.38,0a.1.1,0,0,1,0,.15c-.16,0-.27.27-.47.09,0-.05-.17-.15-.18-.06s-.22.32-.08.5.19,0,.26-.05.28-.13.32.09.15.24.33.24.23,0,.2.05c-.17.49.43.21.48.48a.17.17,0,0,0,.25-.08c.11-.37.24-.11.36,0s.06-.12.07-.18-.05-.25.11-.24,0,.14,0,.21a.78.78,0,0,0,.45.44c.12.05.17-.05.2-.14s0-.16-.14-.19-.21,0-.23-.1a.23.23,0,0,1,.15-.21c.11-.06.18,0,.28.06s.41.3.64.46c-.17.18-.39-.13-.57.08.23.1.53.13.47.5,0,.09.08.1.15.07.4-.19.42-.07.27.29a.33.33,0,0,0,.14.45c.17.1.11.21,0,.3a.42.42,0,0,0-.21.33.61.61,0,0,0,.44-.25c0-.11.13-.15.13-.27s0-.19.11-.19.14.11.15.21l.3-.18c0-.23.21-.31.38-.4s.25-.08.19-.23,0-.24.07-.36c0-.27.32-.51.12-.81a.22.22,0,0,1,.12-.36c.1,0,.18-.15.34-.11-.07.22,0,.45-.07.64-.12.38,0,.46.37.43l.48-.63c0-.21,0-.38.29-.33l.2-.21a.08.08,0,0,1,.07-.08h0c0-.25.21-.49,0-.75-.06-.07,0-.15.15-.16a.55.55,0,0,0,.49-.33.32.32,0,0,1,.33-.21h0l.06-.07c.22-.2.42-.42.65-.61A1.67,1.67,0,0,0,28,14.19c-.1,0-.2,0-.26.11S27.62,14.42,27.57,14.29ZM21.1,17.11c.09.23,0,.4-.17.43s-.28-.14-.33-.31a.17.17,0,0,0-.11-.12.13.13,0,0,1-.08-.2c0-.1.12,0,.2-.05s.43,0,.64-.06c-.06-.33.31-.15.4-.33s.18,0,.19.1,0,.32-.25.33-.17,0-.19.09C21.37,17.28,21.37,17.28,21.1,17.11Zm.32.9c-.1,0-.2,0-.23-.11a.13.13,0,0,1,.12-.19c.05,0,.11,0,.08-.07-.18-.44.21-.25.36-.32s.17,0,.21.06,0,.15-.11.18a.23.23,0,0,0-.14.25C21.7,18,21.57,18,21.42,18Zm-2.16-1c.11,0,.31,0,.13.28a.48.48,0,0,0-.05.26c0,.1.06.25-.08.27s-.11-.14-.12-.23a.41.41,0,0,0-.11-.24c-.07-.07-.12-.14-.07-.24S19.11,17,19.26,17Zm1.17-.42c-.09,0-.26,0-.22-.11s-.07-.41.22-.44.34.07.33.21A.33.33,0,0,1,20.43,16.55Zm-.78,1.16c-.13,0-.1-.15-.09-.23s.3-.32.15-.56c0,0,.08-.08.1,0s.23.31.19.43S19.78,17.58,19.65,17.71ZM19.13,16c.14.25,0,.41,0,.56s-.08.11-.15.09a.25.25,0,0,1-.14-.08.11.11,0,0,1,.06-.17A.61.61,0,0,0,19.13,16Zm6.05.64c-.07-.06-.19-.1-.17-.22s0-.18.15-.14a.21.21,0,0,1,.16.23A.13.13,0,0,1,25.18,16.67Zm-6.39.72c.09,0,.16,0,.18.12a.12.12,0,0,1-.12.14c-.12,0-.15-.08-.17-.17S18.73,17.39,18.79,17.39Zm7-1.07c-.09,0-.08-.09-.08-.15s0-.13.06-.13.11.09.12.16S25.82,16.3,25.76,16.32Z"/><path class="cls-5" d="M9.86,8.15V8.08L9.71,8a.3.3,0,0,1,.21-.28l0-.12a.41.41,0,0,0-.56.06c-.06.06-.12.14-.22,0a.31.31,0,0,1-.25,0c-.21-.05-.4-.24-.64-.13l.07.19a.24.24,0,0,1-.24.11,9.73,9.73,0,0,0-1.43,0h0c.13-.12.31,0,.44-.11l0-.11c-.3-.13-.57.09-.86.09s-.38-.17-.39-.4.09-.26,0-.41.06-.1.12,0,0,.17.18.18L5.92,5.58a2.7,2.7,0,0,0-1.75.11c-.21.1-.45.11-.66.19a3.87,3.87,0,0,0-1,.73c-.42.35-.86.67-1.26,1A4.19,4.19,0,0,0,.16,10,8.22,8.22,0,0,0,0,12.45c.24-.44.8-.49,1-.95.05-.07.08-.15.18-.15h0c0-.07.12-.06.18-.07a.09.09,0,0,0,.1-.1c-.08-.18.3-.2.13-.41s-.27-.55.13-.75a.43.43,0,0,0,.1-.09A6.48,6.48,0,0,1,5.28,8c.17,0,.4-.18.51,0s-.11.3-.17.46a.94.94,0,0,0,0,.16h0c.13,0,.27-.15.38,0s0,.27-.1.39,0,.26.06.38A10.8,10.8,0,0,0,8,8.67a2.11,2.11,0,0,1,.65-.19c.14-.2.38,0,.42,0C9.26,8.16,9.61,8.31,9.86,8.15ZM4.28,7.79c-.4-.12-.44-.48-.47-.73a2,2,0,0,1,.24-.82A.76.76,0,0,1,4.26,6c.13-.12.23-.13.35,0a2,2,0,0,1,.27,1.22c0,.11,0,.17-.16.14C4.27,7.3,4.23,7.34,4.28,7.79Z"/><path class="cls-2" d="M5.92,9.39c-.09-.12-.15-.23-.06-.38s.22-.25.1-.39-.25.06-.38,0L5.5,8.7a.36.36,0,0,1-.25.17c0-.17-.17-.45.21-.48.06.1-.1.23,0,.32l.07-.08a.94.94,0,0,1,0-.16c.06-.16.26-.34.17-.46s-.34,0-.51,0A6.48,6.48,0,0,0,1.83,9.93a.43.43,0,0,1-.1.09c-.4.2-.36.47-.13.75s-.21.23-.13.41a11.37,11.37,0,0,1,1.59-.9,6,6,0,0,1,1.28-.49s0,.05.06.08A7.46,7.46,0,0,0,5.92,9.39Z"/><path class="cls-2" d="M5.92,5.58l.21,1.48C6,7.05,6,6.93,6,6.88s-.16,0-.12,0,0,.27,0,.41.07.39.39.4.56-.22.86-.09A7.77,7.77,0,0,0,8.22,7.6c.24-.11.43.08.64.13a.31.31,0,0,0,.25,0A5,5,0,0,0,5.92,5.58Z"/><path class="cls-3" d="M25,9.27c-.19-.07-.18.16-.3.2.09.15.11.34.26.44s.28.22,0,.28c-.05,0-.14.1-.13.14.07.37-.24.19-.37.24s-.22,0-.12-.17a.18.18,0,0,0,0-.27c-.07-.07-.14,0-.21,0s-.2.1-.27,0-.11-.2-.22-.06-.15.23,0,.33a1.51,1.51,0,0,0,1.19.4c.19,0,.45-.05.47.09s-.25.17-.4.21a1,1,0,0,1-.55,0c-.08,0-.16-.06-.21,0s.09.1.11.14.06.36.2.52-.11.13-.19,0a.57.57,0,0,0-.62-.17c-.15,0-.23-.21-.41-.21v.15a.39.39,0,0,0,.35.3c.33,0,.58.26.89.33s.13.13,0,.21a1.64,1.64,0,0,0,.35,1,.13.13,0,0,0,.14.06c.21-.11-.06-.3.07-.42-.06-.1,0-.16.07-.2s0-.17.14-.16a.28.28,0,0,0,.35-.19c-.27,0-.48-.33-.66-.21.25.08.09-.25.17-.41-.4,0-.39-.38-.59-.59.22,0,.44-.15.62.07a.11.11,0,0,0,.16,0c.32-.24.27,0,.23.18a1,1,0,0,1,.64.24c.06,0,.14.11.22.07s0-.14,0-.22,0-.26-.07-.4h0a.15.15,0,0,1-.15-.2.05.05,0,0,0,0-.05C26,11,26,11,26,10.89l-.08-.13c-.05,0-.07,0-.05-.07l-.19-.39a.1.1,0,0,1-.05-.14h0a.13.13,0,0,1-.13-.15h0c-.05,0-.06,0-.05-.07l-.08-.13c-.13,0-.15-.15-.16-.26A.57.57,0,0,0,25,9.27Zm.31.89a.46.46,0,0,1,.06.42c0,.07-.07.13-.14.12a.31.31,0,0,1-.14-.09c-.08-.07,0-.14,0-.17S25.26,10.26,25.34,10.16Z"/><path class="cls-4" d="M25.05,11.9c-.08.16.08.49-.17.41.18-.12.39.17.66.21s.42,0,.44.29c0,.1.18.07.25.14.25.08.57-.09.74,0a.81.81,0,0,0,.67.09,6.52,6.52,0,0,0-.9-.92c-.18-.13-.16-.35-.25-.52s-.07-.29-.23-.37c0,.14,0,.27.07.4s.08.16,0,.22-.16,0-.22-.07a1,1,0,0,0-.64-.24l-.14.2c0,.15,0,.29-.21.15Z"/><path class="cls-4" d="M9.89,7.63l0,.12s.08.09.14.07c.31-.28.6-.58.91-.85a7.91,7.91,0,0,1,1.78-1.08,6.73,6.73,0,0,1,1.76-.52,8.29,8.29,0,0,1,2.63-.07,1.48,1.48,0,0,0,.21,0,.92.92,0,0,0-.74-.23,16.53,16.53,0,0,0-2.43.24,9.94,9.94,0,0,0-1.91.63,8.76,8.76,0,0,1-1,.47c-.29.11-.45.41-.65.65S10.23,7.56,9.89,7.63Z"/><path class="cls-4" d="M9.85,18.67c0-.29-.27-.4-.36-.63s-.16-.86,0-.95c.29-.25.09-.51,0-.73A4.87,4.87,0,0,0,9,15.52a7.37,7.37,0,0,0-.3,1.61A3.36,3.36,0,0,0,9.85,18.67Z"/><path class="cls-3" d="M6.5,11.39l.46,0c.28-.21.28-.54.36-.84-.54-.05-.06-.28-.07-.42h0l.29-.25.07-.09h0l.07-.07h0l.07-.08h0l.08-.07.06-.06,0-.27a2.88,2.88,0,0,0-1.17.77,1.59,1.59,0,0,0-.35,1.17C6.43,11.24,6.47,11.31,6.5,11.39Z"/><path class="cls-2" d="M7.88,9.56l-.06.06-.08.07h0c0,.05,0,.08-.07.08h0a.06.06,0,0,1-.07.07h0l-.07.09-.29.25c.06,0,.13,0,.13.09a.23.23,0,0,0,.2.24c.13,0,.13-.13.19-.21s.07,0,.11,0h0c0-.06,0-.12.07-.14h0a.36.36,0,0,1,.14-.29h0c.06-.22.21-.47.4-.44s.07.33.09.51l.08-.09a1.76,1.76,0,0,1,.63-1.28c.07-.08.14,0,.18,0,.28,0,.33-.2.4-.41-.25.16-.6,0-.8.31,0,.06-.28-.18-.42,0a1.22,1.22,0,0,1-.48.72A.82.82,0,0,1,7.88,9.56Z"/><path class="cls-4" d="M24.64,18.64c-.33,0-.49-.05-.37-.43.07-.19,0-.42.07-.64-.16,0-.24.07-.34.11a.22.22,0,0,0-.12.36c.2.3-.08.54-.12.81,0,.12-.12.21-.07.36s-.09.19-.19.23-.36.17-.38.4C23.71,19.55,24.35,19.31,24.64,18.64Z"/><path class="cls-5" d="M3.7,13.08c.16-.35.47-.17.71-.17a8,8,0,0,0,1.28,0,1.63,1.63,0,0,0-1.29-.18c-.1,0-.18.12-.26,0s0-.18.13-.23.2-.11.1-.21a5.31,5.31,0,0,0-1.23,1c.2,0,.35-.18.56-.14Z"/><path class="cls-3" d="M27.64,13.06A.81.81,0,0,1,27,13c-.17-.11-.49.06-.74,0,0,.15.23.11.21.27h.06a3.38,3.38,0,0,1,1,.49,1.42,1.42,0,0,0,.21-.51Z"/><path class="cls-4" d="M26.66,15.94a.32.32,0,0,0-.33.21.55.55,0,0,1-.49.33c-.11,0-.21.09-.15.16.2.26,0,.5,0,.75.32-.13.39-.47.58-.71A3.75,3.75,0,0,0,26.66,15.94Z"/><path class="cls-4" d="M27.72,13.2a1.42,1.42,0,0,1-.21.51,1.64,1.64,0,0,0,.06.58c.05.13.12.13.17,0s.16-.11.26-.11A1.31,1.31,0,0,0,27.72,13.2Z"/><path class="cls-5" d="M4.4,9.87s-.05-.08-.06-.08a6,6,0,0,0-1.28.49A3,3,0,0,0,4.4,9.87Z"/><path class="cls-4" d="M22.82,20c0-.1-.06-.2-.15-.21s-.11.11-.11.19-.13.16-.13.27A.65.65,0,0,0,22.82,20Z"/><path class="cls-4" d="M7.88,9.56a.82.82,0,0,0,.28-.36c-.11,0-.23-.06-.3.09Z"/><path class="cls-4" d="M10.09,18.71H9.87c0,.17.17.25.28.35l0,0v-.19Z"/><path class="cls-4" d="M25.41,17.68c-.28-.05-.3.12-.29.33A.44.44,0,0,0,25.41,17.68Z"/><path class="cls-4" d="M10.5,19.28c0-.16-.07-.21-.2-.23h-.12l0,0A.53.53,0,0,0,10.5,19.28Z"/><path class="cls-3" d="M22,20.53c-.18,0-.37,0-.45.2A.71.71,0,0,0,22,20.53Z"/><path class="cls-5" d="M5.77,11.54c.12,0,.25.08.3-.1A.25.25,0,0,0,5.77,11.54Z"/><path class="cls-3" d="M21.45,20.74c-.11,0-.26-.08-.29.12A.38.38,0,0,0,21.45,20.74Z"/><path class="cls-4" d="M25.19,9.54c0,.11,0,.22.16.26C25.33,9.69,25.35,9.56,25.19,9.54Z"/><path class="cls-4" d="M26.11,11.05a.15.15,0,0,0,.15.2C26.25,11.15,26.22,11.07,26.11,11.05Z"/><path class="cls-5" d="M6.5,11.39c0-.08-.07-.15-.16-.16l0,.17Z"/><path class="cls-2" d="M1.2,11.35c-.1,0-.13.08-.18.15C1.12,11.5,1.21,11.48,1.2,11.35Z"/><path class="cls-4" d="M25.49,10a.13.13,0,0,0,.13.15A.15.15,0,0,0,25.49,10Z"/><path class="cls-4" d="M25.62,10.16a.1.1,0,0,0,.05.14A.1.1,0,0,0,25.62,10.16Z"/><path class="cls-2" d="M1.37,11.28c-.06,0-.14,0-.18.07S1.32,11.32,1.37,11.28Z"/><path class="cls-4" d="M26,10.89c0,.08,0,.1.09.11Z"/><path class="cls-4" d="M25.86,10.69c0,.05,0,.07.05.07Z"/><path class="cls-4" d="M26.72,15.86l-.06.07Z"/><path class="cls-4" d="M25.43,9.93c0,.05,0,.07.05.07Z"/><path class="cls-4" d="M25.68,17.39a.08.08,0,0,0-.07.08Z"/><path class="cls-4" d="M14.27,11.76c-.3-.08-.37-.23-.16-.48s.11-.49-.09-.7-.18-.15-.08-.34-.09-.57-.39-.64-.46,0-.63-.23-.19,0-.28.05a3,3,0,0,0-.39.22c-.13-.08,0-.25-.13-.34s-.15.23-.31.14-.1-.48,0-.52.29,0,.49-.08c-.34-.1-.61-.42-.9,0a.14.14,0,0,1-.08.06c-.58,0-.64.43-.79.81a.37.37,0,0,1-.23.23c-.5.2-.57.69-.79,1.08.09.06.13,0,.17,0s.11-.15.2-.07a.21.21,0,0,1,.05.25,1.09,1.09,0,0,0,0,1.05s.06.13.05.16c-.23.54.26.76.47,1.11a.23.23,0,0,0,.21.15c.2,0,.29.09.37.34.08-.25.35-.39,0-.6,0,0,0-.08,0-.12a.2.2,0,0,1,.2,0c.18.1.32.11.44-.09a.13.13,0,0,1,.18,0c.07,0,.11.08.08.16-.09.27.1.23.24.23l.28-.15c0-.13.11-.13.21-.12S13,13,13.16,13s.28-.1.24-.29a.92.92,0,0,1,.09-.57c0-.1,0-.38.2-.31s.11.29,0,.46,0,.3.19.3l.14-.14c0-.18-.2-.5.21-.54ZM12,12.7A.63.63,0,0,1,12,12a.14.14,0,0,1,.17-.08c.07,0,0,.08.05.14A.75.75,0,0,1,12,12.7Zm.78.12c0,.09,0,.31-.27.31a.15.15,0,0,1-.15-.19c0-.21.18-.29.35-.33S12.79,12.65,12.75,12.82Zm1.12-1.64c-.11-.06-.26-.1-.27-.27a.12.12,0,0,1,.14-.11.26.26,0,0,1,.24.25C14,11.11,14,11.19,13.87,11.18Zm-.93.76c0-.08,0-.22.1-.22s.12.18.16.28a.12.12,0,0,1-.12.16C12.91,12.17,13,12,12.94,11.94Zm-.62-1.51c-.1,0-.18,0-.19-.15s.09-.12.17-.11.2,0,.2.14S12.41,10.43,12.32,10.43Zm-1.11,1.46c0-.08,0-.16.13-.17s.14.08.14.17,0,.19-.15.18S11.22,12,11.21,11.89Zm1.4-.6c.08.15.18.28.07.44s-.07.07-.1,0a.51.51,0,0,1,0-.42ZM11.19,9.85c.17-.1.15-.32.35-.3s.09.06.07.1A.32.32,0,0,1,11.19,9.85Zm-.27-.1c.06,0,.13,0,.12.08a.3.3,0,0,1-.22.23c-.07,0-.09-.05-.09-.11A.19.19,0,0,1,10.92,9.75Z"/><path class="cls-3" d="M21.43,10.09a1,1,0,0,1-.77-.3c-.21-.18-.28-.15-.43,0s-.12.19-.22.11,0-.17.07-.24.13-.14.05-.16c-.26-.09-.29-.41-.53-.52,0,0-.07-.06-.08-.05-.28.18-.63,0-.82.05-.38.17-.61,0-.86-.17A.91.91,0,0,0,17,8.69a.88.88,0,0,1,.56.46.26.26,0,0,0,.17.11c.24.06.53,0,.72.25.06.07.15,0,.19-.08s.23-.14.25-.09.41.09.37.36,0,.38.31.29c.2-.06.21.21.24.38s.28,0,.38,0a2,2,0,0,1,.84-.11c.31,0,.29.14.17.34.23,0,.06.19.07.29a1.3,1.3,0,0,0,.48.07c.25-.22.35-.2.43.08.16-.07.45,0,.39-.32,0-.15.12-.18.24-.19a.6.6,0,0,0-.79-.11c-.15.12-.29.27-.49.17s-.1-.3-.12-.47Z"/><path class="cls-3" d="M13.91,12.58c-.23,0-.28-.11-.19-.3s.14-.39,0-.46-.16.21-.2.31a.92.92,0,0,0-.09.57c0,.19-.17.19-.24.29a1.26,1.26,0,0,0,0,.27c0,.11.09.16.17.2a.13.13,0,0,0,.17-.07.87.87,0,0,1,.44-.64S13.91,12.64,13.91,12.58Z"/><path class="cls-3" d="M14.68,16c-.13,0-.2.1-.3.16s-.33,0-.3-.14-.08-.24-.22-.29a.47.47,0,0,1-.24-.13c-.07-.08-.16-.1-.22,0s0,.18.08.23c.27.13.51.25.54.62,0,.15.28.23.43.09s.22-.29.39-.37a.07.07,0,0,0,0-.09A.17.17,0,0,0,14.68,16Z"/><path class="cls-4" d="M24.42,12.46c.12-.08.2-.16,0-.21s-.56-.3-.89-.33a.39.39,0,0,1-.35-.3h0c-.14,0-.35-.15-.4,0s.16.19.29.24.06.07.08.1c.37,0,.44.38.7.49S24.22,12.4,24.42,12.46Z"/><path class="cls-3" d="M22.89,11.06a.64.64,0,0,1,.48.22.13.13,0,0,0,.15.05c.07,0,.05-.1,0-.15s-.05-.17,0-.25a.17.17,0,0,0-.11-.3c-.28.19-.41-.14-.62-.13C22.65,10.71,23,10.86,22.89,11.06Z"/><path class="cls-4" d="M15.37,10.32c-.12,0-.11-.13-.18-.19l-.06,0a3.65,3.65,0,0,0-.07,1s.07.05.11.07C15.55,11,15.32,10.64,15.37,10.32Z"/><path class="cls-3" d="M18.15,11.14c.17-.08.28.09.43.11s.27.05.34-.08-.13-.07-.16-.14a.3.3,0,0,1,0-.13c.05-.3-.19-.19-.28-.16s-.22.24-.42.15S18,11,18,11,18,11.21,18.15,11.14Z"/><path class="cls-3" d="M24.56,13.43c-.07-.1-.17-.06-.27-.07a.68.68,0,0,0-.29.29c0,.21.08.29.28.26l.5-.08c0-.09-.09-.11-.18-.13S24.44,13.54,24.56,13.43Z"/><path class="cls-4" d="M24.56,13.43c-.12.11-.19.22,0,.27s.16,0,.18.13h.13a.38.38,0,0,0,.41,0c.11-.07,0-.16,0-.24h0a.53.53,0,0,1-.42-.15.13.13,0,0,1-.14-.06Z"/><path class="cls-3" d="M23.81,12.44c-.26-.11-.33-.51-.7-.49-.11.27,0,.41.26.45A1.32,1.32,0,0,0,23.81,12.44Z"/><path class="cls-4" d="M24,13.65a.68.68,0,0,1,.29-.29l-.08-.08c-.28,0-.59,0-.76.29l.21.06s.05,0,.07,0Z"/><path class="cls-3" d="M13.16,14.54c0,.2.05.41.07.61s0,.14.12.14.11,0,.12,0c.1-.21-.05-.41-.06-.61s-.16-.09-.25-.1Z"/><path class="cls-3" d="M21.1,12c.24.19.52.18.82.4C21.65,11.77,21.65,11.77,21.1,12Z"/><path class="cls-3" d="M15.68,12.11c.28-.19,0-.39,0-.59-.17.25-.48.42-.37.79.15,0,.14-.11.14-.21s0-.17.13-.17S15.65,12.05,15.68,12.11Z"/><path class="cls-3" d="M11.29,17.39c-.12.11-.07.23-.1.32s-.16.25,0,.34.19-.07.28-.14.12-.22,0-.33A.78.78,0,0,1,11.29,17.39Z"/><path class="cls-4" d="M25.05,12.87c-.09,0-.13.1-.07.2a.81.81,0,0,1,.39.12.26.26,0,0,0,.34-.09C25.54,12.89,25.26,13,25.05,12.87Z"/><path class="cls-4" d="M21.29,10.86c0-.1.16-.25-.07-.29s-.46.13-.43.23C20.87,11.07,21.12,10.86,21.29,10.86Z"/><path class="cls-4" d="M26.5,13.22h-.06a.8.8,0,0,0-.26-.05c-.09,0-.2,0-.2.15s.12.08.2.1l.2,0c.08,0,.16,0,.21,0S26.51,13.3,26.5,13.22Z"/><path class="cls-3" d="M14.26,11.9c-.41,0-.16.36-.21.54C14.37,12.4,14.42,12.28,14.26,11.9Z"/><path class="cls-3" d="M23.45,13.57c.17-.33.48-.27.76-.29a1,1,0,0,0-.75,0C23.08,13.39,23.33,13.46,23.45,13.57Z"/><path class="cls-3" d="M19.15,15.24c0,.09.05.14.11.1s.35.07.41-.15-.11-.15-.19-.14S19.19,15.08,19.15,15.24Z"/><path class="cls-4" d="M15.68,12.11c0-.06,0-.18-.1-.18s-.12.09-.13.17,0,.21-.14.21h0c.11.29.23,0,.35,0Z"/><path class="cls-4" d="M25.33,13.63c.21-.09.36.21.58.12-.18-.32-.35-.35-.58-.11Z"/><path class="cls-3" d="M19.85,14.92l.14-.07c.09-.07.29,0,.29-.17s-.1-.07-.17-.07S19.82,14.66,19.85,14.92Z"/><path class="cls-3" d="M19.14,10.65c-.14,0-.22,0-.2.16a.12.12,0,0,0,.17.11c.09,0,.21,0,.2-.15S19.2,10.66,19.14,10.65Z"/><path class="cls-3" d="M15.66,12.32c-.12,0-.24.28-.35,0-.12,0-.16.09-.1.19a.18.18,0,0,0,.26.07C15.56,12.52,15.79,12.54,15.66,12.32Z"/><path class="cls-3" d="M17,10.75s0,.05,0,.06a.38.38,0,0,0,.44,0,.14.14,0,0,0,0-.09C17.32,10.59,17.18,10.69,17,10.75Z"/><path class="cls-3" d="M22.87,12.48a.25.25,0,0,0-.26-.21.29.29,0,0,0-.24.1s0,.07,0,.09.14,0,.2,0S22.76,12.51,22.87,12.48Z"/><path class="cls-3" d="M15.11,16.68c.08,0,.13,0,.12-.1a.4.4,0,0,0-.18-.27.1.1,0,0,0-.13.08A.42.42,0,0,0,15.11,16.68Z"/><path class="cls-3" d="M21.74,12.53c0,.09.08.14.15.11s.2,0,.22-.13-.05-.12-.13-.12A.26.26,0,0,0,21.74,12.53Z"/><path class="cls-4" d="M22.2,11c-.08-.28-.18-.3-.43-.08C21.9,11,22.05,11,22.2,11Z"/><path class="cls-3" d="M18.72,12.93c0,.09,0,.14.13.14s.18,0,.2-.13,0-.14-.12-.1S18.73,12.78,18.72,12.93Z"/><path class="cls-3" d="M20.17,11.74c0-.14-.13-.12-.21-.15s-.11,0-.12.07,0,.16.13.16S20.13,11.84,20.17,11.74Z"/><path class="cls-3" d="M16,10.88c0,.1.07.11.14.12s.19,0,.19-.14,0-.11-.1-.09S16.05,10.76,16,10.88Z"/><path class="cls-3" d="M13.16,14.54a.29.29,0,0,0-.25-.33c0,.18.05.31.25.33Z"/><path class="cls-3" d="M10.18,19h.12c0-.1,0-.2-.13-.2Z"/><path class="cls-3" d="M12.81,13.23c-.1,0-.19,0-.21.12S12.79,13.37,12.81,13.23Z"/><path class="cls-3" d="M23.73,13.63s-.05,0-.07,0Z"/><path class="cls-3" d="M24.91,13.84h-.06Q24.87,13.92,24.91,13.84Z"/><path class="cls-5" d="M7.87,10.23s-.09,0-.11,0-.06.22-.19.21a.23.23,0,0,1-.2-.24c0-.07-.07-.08-.13-.09h0c0,.15.1.27.07.42-.08.3-.08.63-.36.84.07.28-.09.49-.19.72-.92,2.09-1.67,4.24-2.46,6.38a28.93,28.93,0,0,0-1.14,3.75.26.26,0,0,0,0,.21,3.68,3.68,0,0,0,.37-1.28c.26-.94.61-1.84.94-2.75.52-1.44,1-2.88,1.6-4.31A8,8,0,0,1,7,12.23a1.05,1.05,0,0,0,.15-.43c.08-.32.24-.35.5-.24-.19-.32.09-.56.13-.85,0,0,0-.05,0-.06h0Z"/><path class="cls-5" d="M6.69,19c.21.55-.19.75-.56.94-.22.11-.31.25-.21.49s0,.14.18.12a.93.93,0,0,0,.53-.35c.19-.2.22-.51.57-.6.12,0,.08-.42,0-.64s-.11-.17-.17-.28a.89.89,0,0,1-.34.33Zm-.14.89s0-.06,0-.08,0,0,.07,0,0,.06,0,.08S6.57,19.91,6.55,19.87Zm-.43.49,0,0,0,0,0,0Z"/><path class="cls-1" d="M9,15.24c.28.28.34.71.72.92-.14-.24,0-.55-.21-.8s-.15-.54-.25-.81c0-.11-.08-.21-.22-.22A5.55,5.55,0,0,1,9,15.24Z"/><path class="cls-5" d="M7.38,18.63c.09,0,.36-.37.31-.46s-.08-.08-.1-.07c-.33.22-.45-.11-.64-.24s-.07-.06-.12,0-.07.08-.07.14A1.08,1.08,0,0,0,7.38,18.63Z"/><path class="cls-5" d="M7.84,16.57l-.07,0c.13.19-.26.38,0,.58s.36.32.15.58a.07.07,0,0,0,0,.11.09.09,0,0,0,.12-.09,1.51,1.51,0,0,1,0-.61c.12-.27-.12-.34-.15-.51A.09.09,0,0,0,7.84,16.57Z"/><path class="cls-5" d="M3.9,13.78a.73.73,0,0,0,.9.06c-.29-.2-.6,0-.89-.07Z"/><path class="cls-5" d="M8.82,15.12a2.37,2.37,0,0,0,.08-.31c0-.12,0-.26-.11-.29s-.19.09-.21.19-.12.28.15.22A1.88,1.88,0,0,1,8.82,15.12Z"/><path class="cls-5" d="M4.54,13.39c-.13-.17-.29-.19-.42-.27s-.14,0-.17.1,0,.13.12.14Z"/><path class="cls-5" d="M7.15,16.48c0-.06,0-.08,0-.08s-.05-.31-.25-.33c0,0-.11,0-.09.07A.52.52,0,0,0,7.15,16.48Z"/><path class="cls-5" d="M7.19,16.88c0,.09,0,.17.06.2s.07,0,.07,0S7.26,16.92,7.19,16.88Z"/><path class="cls-5" d="M3.7,13.08l0,.15h0a.11.11,0,0,0,0-.14Z"/><path class="cls-5" d="M3.91,13.77l0-.08,0,0,0,.07Z"/><path class="cls-5" d="M6.69,19a0,0,0,0,1,0,0h0l0,0Z"/><path class="cls-1" d="M8.65,9.8l-.08.09a.18.18,0,0,1-.08.15c0,.05-.08.05-.13.05h0l-.08.07h0c-.12.28-.09.59-.24.87a1.41,1.41,0,0,0,.37,1q.12.07.15-.06c0-.18.21-.33.1-.57s.15-.38.21-.58A4.77,4.77,0,0,0,9,10.11,3.38,3.38,0,0,1,9.4,9a.56.56,0,0,0,.06-.4A5.39,5.39,0,0,0,8.65,9.8Z"/><path class="cls-4" d="M8.65,9.8a5.39,5.39,0,0,1,.81-1.2v0c0-.1-.11-.13-.18-.05A1.76,1.76,0,0,0,8.65,9.8Z"/><path class="cls-4" d="M14.66,5.72a.69.69,0,0,0-.49.43c-.07.17.11.14.19.12s.27-.15.44-.16.08-.11,0-.19S14.82,5.7,14.66,5.72Z"/><path class="cls-6" d="M17.05,5.86c-.1.23.05.3.23.32a.54.54,0,0,0,.6-.39h-.06c-.25.07-.49.24-.76.08Z"/><path class="cls-4" d="M10.5,14c.06,0,.12,0,.14-.09s0-.16-.07-.17-.28-.12-.34-.28a.1.1,0,0,0-.14-.06.15.15,0,0,0-.06.11C10,13.65,10.34,14,10.5,14Z"/><path class="cls-4" d="M13.71,8.05c0,.11.06.27.21.28a.27.27,0,0,0,.25-.24c0-.15-.15-.23-.27-.25S13.74,7.94,13.71,8.05Z"/><path class="cls-2" d="M7.87,10.23l-.07.42a1.13,1.13,0,0,0,.23-.4c.06-.13.14-.15.25-.09h0l.08-.07h0V10c0-.24-.06-.31-.28-.2h0c0,.12,0,.23-.14.29h0a.13.13,0,0,1-.07.14Z"/><path class="cls-4" d="M17.06,5.86c.27.16.51,0,.76-.08,0,0,0-.11,0-.13A.85.85,0,0,0,17.06,5.86Z"/><path class="cls-1" d="M12.67,16c0-.09.05-.24-.12-.22s-.24,0-.21.16.09.32.25.31S12.65,16.07,12.67,16Z"/><path class="cls-4" d="M11.59,13.63c-.16,0-.18.1-.18.23s0,.21.14.18a.33.33,0,0,0,.26-.25C11.83,13.65,11.7,13.64,11.59,13.63Z"/><path class="cls-4" d="M14.69,8.61c-.17,0,0-.36-.31-.27a.12.12,0,0,0-.09.16C14.36,8.7,14.53,8.61,14.69,8.61Z"/><path class="cls-1" d="M11.6,16.48c.08,0,.17,0,.15-.13s-.05-.19-.16-.2-.11.13-.13.21S11.52,16.48,11.6,16.48Z"/><path class="cls-2" d="M10.06,7.82c-.06,0-.1,0-.14-.07A.3.3,0,0,0,9.71,8l.15.05C10,8,10.06,8,10.06,7.82Z"/><path class="cls-4" d="M14.39,6.57c-.15,0-.26,0-.31.17a.07.07,0,0,0,.08.08C14.29,6.81,14.37,6.73,14.39,6.57Z"/><path class="cls-2" d="M7.8,10.65s-.06,0,0,.06A.07.07,0,0,0,7.8,10.65Z"/><path class="cls-6" d="M20.3,6.69c-.3.26-.72.31-1,.56-.12.09,0,.21.09.27a3.31,3.31,0,0,1,.47.29c.11.09.25.11.28-.09a.29.29,0,0,1,.17-.24c.14-.09.12-.18,0-.29s-.17-.16,0-.25.18,0,.24.12l.17.22c.06.06.13.14.21.08a1.37,1.37,0,0,0,.25-.29s0-.1-.07-.09a.75.75,0,0,1-.64-.27S20.35,6.7,20.3,6.69Z"/><path class="cls-3" d="M18,9.89l.33-.09c.06,0,.09-.05.08-.09a.14.14,0,0,0-.09-.09c-.07,0-.16,0-.23,0-.28-.13-.65-.1-.78-.51-.05-.17-.36-.15-.57-.15-.55,0-.55,0-.68-.55,0-.06,0-.12-.09-.13s-.09,0-.12.1a.46.46,0,0,0,.1.56c.13.14.19.37.48.25s.58.14.77.36S17.76,9.68,18,9.89Z"/><path class="cls-6" d="M18.83,7c.12,0,.3.13.38,0a2.23,2.23,0,0,1,.32-.5c.07-.06-.05-.15-.13-.12A1,1,0,0,0,19,6.5c-.06,0-.11.13-.21.07s-.27,0-.29.18a.25.25,0,0,0,.38.24Z"/><path class="cls-6" d="M21.92,8.06c-.08-.29-.39-.35-.42-.6a7.45,7.45,0,0,0-.8.14s.05.2.17.19a.86.86,0,0,1,.59.25C21.6,8.17,21.74,8,21.92,8.06Z"/><path class="cls-3" d="M21.43,10.09a1.08,1.08,0,0,0,.66-.16c.06,0,.15-.1.13-.18s-.13-.06-.2-.07a1.73,1.73,0,0,0-.75.1c-.05.16.19.17.16.31Z"/><path class="cls-3" d="M23.75,8c-.14,0-.18.08-.15.16s.12.36.3.43.12-.09.1-.17A.58.58,0,0,0,23.75,8Z"/><path class="cls-3" d="M23.3,9.88c.12,0,.16-.07.14-.14a.38.38,0,0,0-.38-.27c-.07,0-.18,0-.15.1S23.2,9.76,23.3,9.88Z"/><path class="cls-3" d="M22.71,9.09l0,.06a.72.72,0,0,0,.62.06.08.08,0,0,0,0-.11C23.37,9,23.08,9,22.71,9.09Z"/><path class="cls-3" d="M18,8.5c.09.13.29,0,.43.11a.09.09,0,0,0,.14,0c0-.05,0-.09,0-.12a.62.62,0,0,0-.46-.07C18,8.38,17.94,8.44,18,8.5Z"/><path class="cls-3" d="M19.05,10c-.07-.1-.16-.06-.23-.1s-.21-.2-.27,0,.15.12.25.17A.17.17,0,0,0,19.05,10Z"/><path class="cls-3" d="M16.39,8.4a.08.08,0,0,0,.07.09c.08,0,.15,0,.16-.09a.09.09,0,0,0-.07-.1A.14.14,0,0,0,16.39,8.4Z"/><path class="cls-1" d="M21.1,17.11c.27.17.27.17.3-.12,0-.13.12-.08.19-.09s.27-.16.25-.33-.13-.2-.19-.1-.46,0-.4.33c-.21,0-.43.06-.64.06s-.16-.05-.2.05a.13.13,0,0,0,.08.2.17.17,0,0,1,.11.12c0,.17.17.34.33.31S21.19,17.34,21.1,17.11Z"/><path class="cls-1" d="M21.42,18c.15,0,.28,0,.29-.2a.23.23,0,0,1,.14-.25c.07,0,.16-.07.11-.18s-.15-.08-.21-.06-.54-.12-.36.32c0,.07,0,.07-.08.07a.13.13,0,0,0-.12.19C21.22,18,21.32,18,21.42,18Z"/><path class="cls-1" d="M19.26,17c-.15,0-.24,0-.3.1s0,.17.07.24a.41.41,0,0,1,.11.24c0,.09-.05.25.12.23s.07-.17.08-.27a.48.48,0,0,1,.05-.26C19.57,17,19.37,17,19.26,17Z"/><path class="cls-1" d="M20.43,16.55a.33.33,0,0,0,.33-.34c0-.14-.16-.23-.33-.21s-.18.29-.22.44S20.34,16.54,20.43,16.55Z"/><path class="cls-1" d="M19.65,17.71c.13-.13.32-.24.35-.4s-.11-.29-.19-.43-.12,0-.1,0c.15.24-.14.36-.15.56S19.52,17.67,19.65,17.71Z"/><path class="cls-1" d="M19.13,16a.61.61,0,0,1-.24.4.11.11,0,0,0-.06.17.25.25,0,0,0,.14.08c.07,0,.14,0,.15-.09S19.27,16.28,19.13,16Z"/><path class="cls-4" d="M25.18,16.67a.13.13,0,0,0,.14-.13.21.21,0,0,0-.16-.23c-.11,0-.15.07-.15.14S25.11,16.61,25.18,16.67Z"/><path class="cls-1" d="M18.79,17.39c-.06,0-.12,0-.11.09s.05.19.17.17a.12.12,0,0,0,.12-.14C19,17.42,18.88,17.39,18.79,17.39Z"/><path class="cls-4" d="M25.76,16.32c.06,0,.11-.05.1-.12s0-.17-.12-.16-.06.08-.06.13S25.67,16.31,25.76,16.32Z"/><path class="cls-4" d="M4.28,7.79c0-.45,0-.49.44-.38.15,0,.16,0,.16-.14a2,2,0,0,0-.27-1.22c-.12-.17-.22-.16-.35,0a.76.76,0,0,0-.21.23,2,2,0,0,0-.24.82C3.84,7.31,3.88,7.67,4.28,7.79Z"/><path class="cls-2" d="M7.06,7.76c-.13.1-.31,0-.44.11h0a9.73,9.73,0,0,1,1.43,0,.24.24,0,0,0,.24-.11C7.88,7.82,7.47,7.71,7.06,7.76Z"/><path class="cls-4" d="M7.06,7.76c.41,0,.82.06,1.23,0L8.22,7.6A7.77,7.77,0,0,1,7,7.65Z"/><path class="cls-2" d="M6.62,7.87h0Z"/><path class="cls-5" d="M5.51,8.71c-.15-.09,0-.22,0-.32-.38,0-.16.31-.21.48A.36.36,0,0,0,5.5,8.7Z"/><path class="cls-5" d="M5.58,8.63l-.07.08h0l.08-.06Z"/><path class="cls-1" d="M25.05,11.9h.07a.2.2,0,0,1,.21-.15l.14-.2c0-.2.09-.42-.23-.18a.11.11,0,0,1-.16,0c-.18-.22-.4-.05-.62-.07C24.66,11.52,24.65,11.91,25.05,11.9Z"/><path class="cls-4" d="M25.34,10.16c-.08.1-.07.23-.19.28s-.11.1,0,.17a.31.31,0,0,0,.14.09c.07,0,.11,0,.14-.12A.46.46,0,0,0,25.34,10.16Z"/><path class="cls-3" d="M25.33,11.76a.2.2,0,0,0-.21.15C25.33,12.05,25.33,11.91,25.33,11.76Z"/><path class="cls-2" d="M7.32,10.58c0-.15-.12-.27-.07-.42C7.26,10.3,6.78,10.53,7.32,10.58Z"/><path class="cls-4" d="M7.67,9.76s.07,0,.07-.08Z"/><path class="cls-4" d="M7.6,9.82a.06.06,0,0,0,.07-.07Z"/><path class="cls-4" d="M7.74,9.69l.08-.07Z"/><path class="cls-4" d="M7.53,9.91l.07-.09Z"/><path class="cls-5" d="M8.08,9.82c.22-.11.32,0,.28.2l.13,0a.18.18,0,0,0,.08-.15c0-.18.1-.47-.09-.51S8.14,9.6,8.08,9.82Z"/><path class="cls-5" d="M7.94,10.1c.13-.06.14-.17.14-.29A.36.36,0,0,0,7.94,10.1Z"/><path class="cls-5" d="M7.87,10.23a.13.13,0,0,0,.07-.14C7.87,10.11,7.87,10.17,7.87,10.23Z"/><path class="cls-3" d="M12,12.7a.75.75,0,0,0,.24-.65c0-.06,0-.12-.05-.14A.14.14,0,0,0,12,12,.63.63,0,0,0,12,12.7Z"/><path class="cls-3" d="M12.75,12.82c0-.17,0-.24-.07-.21s-.33.12-.35.33a.15.15,0,0,0,.15.19C12.73,13.13,12.72,12.91,12.75,12.82Z"/><path class="cls-3" d="M13.87,11.18c.12,0,.12-.07.11-.13a.26.26,0,0,0-.24-.25.12.12,0,0,0-.14.11C13.61,11.08,13.76,11.12,13.87,11.18Z"/><path class="cls-3" d="M12.94,11.94c0,.09,0,.23.14.22A.12.12,0,0,0,13.2,12c0-.1,0-.27-.16-.28S13,11.86,12.94,11.94Z"/><path class="cls-3" d="M12.32,10.43c.09,0,.18,0,.18-.12s-.11-.14-.2-.14-.17,0-.17.11S12.22,10.43,12.32,10.43Z"/><path class="cls-3" d="M11.21,11.89c0,.09,0,.18.12.18s.15-.09.15-.18,0-.17-.14-.17S11.22,11.81,11.21,11.89Z"/><path class="cls-3" d="M12.61,11.29l0,0a.51.51,0,0,0,0,.42c0,.05.07,0,.1,0S12.69,11.44,12.61,11.29Z"/><path class="cls-3" d="M11.19,9.85a.32.32,0,0,0,.42-.2s0-.09-.07-.1S11.36,9.75,11.19,9.85Z"/><path class="cls-3" d="M10.92,9.75a.19.19,0,0,0-.19.2c0,.06,0,.13.09.11A.3.3,0,0,0,11,9.83C11.05,9.76,11,9.75,10.92,9.75Z"/><path class="cls-2" d="M6.55,19.87s0,.05.08,0,0-.05,0-.08-.06,0-.07,0S6.56,19.85,6.55,19.87Z"/><path class="cls-2" d="M6.12,20.36h0l0,0,0,0Z"/><path class="cls-3" d="M8.49,10l-.13,0v.07C8.41,10.09,8.46,10.09,8.49,10Z"/><path class="cls-3" d="M8.36,10.09l-.08.07Z"/></svg>