<?xml version="1.0" encoding="UTF-8"?>
<svg xmlns="http://www.w3.org/2000/svg" xmlns:xlink="http://www.w3.org/1999/xlink" width="194.262" height="70" viewBox="0 0 194.262 70">
  <defs>
    <clipPath id="clip-path">
      <rect id="Rettangolo_46" data-name="Rettangolo 46" width="194.262" height="70" fill="none"></rect>
    </clipPath>
  </defs>
  <g id="Raggruppa_248" data-name="Raggruppa 248" transform="translate(0 0)">
    <g id="Raggruppa_159" data-name="Raggruppa 159" transform="translate(0 0)" clip-path="url(#clip-path)">
      <path id="Tracciato_45" data-name="Tracciato 45" d="M111.381,11.322c3.932,0,7.137-2.49,7.137-5.75,0-3.023-3.059-5.573-6.846-5.573-4.006,0-6.917,2.669-6.917,5.867,0,2.846,3.057,5.455,6.626,5.455" transform="translate(73.764 0)" fill="#ffcd00"></path>
      <path id="Tracciato_46" data-name="Tracciato 46" d="M27.349,11.322c3.931,0,7.137-2.49,7.137-5.75C34.486,2.549,31.427,0,27.64,0c-4.006,0-6.917,2.669-6.917,5.867,0,2.846,3.057,5.455,6.626,5.455" transform="translate(14.592 0)" fill="#ffcd00"></path>
      <path id="Tracciato_47" data-name="Tracciato 47" d="M15.8,39.312V16.844c0-2.969-.481-6.162,2.89-7.9V8.775H.178v.169c3.373,1.738,2.892,4.932,2.892,7.844v20.9c0,2.912.481,6.05-2.892,7.786v.169H30.192L32.808,37.8a17.494,17.494,0,0,1-9.775,2.464,20.55,20.55,0,0,1-7.229-.951" transform="translate(0.125 6.179)" fill="#ffcd00"></path>
      <path id="Tracciato_48" data-name="Tracciato 48" d="M86.659,37.013l-3.234-24.26c-.276-2.018.758-2.575,2.41-3.809V8.775H69.38v.169L61.4,30.4,51.209,8.944V8.775H35.376v.169c1.861,1.345,2.89,3.025,2.614,5.153l-3.3,23.534c-.416,3.025-.552,5.827-3.579,7.843v.169H44.668v-.169c-2-.84-3.234-2.41-3.028-4.313l2.342-19.33h.206l6.747,14.9c1.3,2.858,2.13,5.211,5.368,6.946a23.659,23.659,0,0,0,6.537,2.578l8.949-24.427H72L74.476,41.5c.206,1.513-1.033,3.027-2.2,3.978v.169h18.17v-.169c-3.027-2.185-3.371-5.322-3.785-8.461" transform="translate(21.906 6.179)" fill="#ffcd00"></path>
      <path id="Tracciato_49" data-name="Tracciato 49" d="M123.122,37.013l-3.234-24.26c-.276-2.018.757-2.575,2.41-3.809V8.775H105.844v.169L97.86,30.4,87.673,8.944V8.775H71.839v.169c1.858,1.345,2.89,3.025,2.616,5.153l-3.3,23.534c-.412,3.025-.55,5.827-3.579,7.843v.169H81.134v-.169c-2-.84-3.236-2.41-3.03-4.313l2.342-19.33h.2l6.748,14.9c1.307,2.858,2.132,5.211,5.368,6.946a23.649,23.649,0,0,0,6.539,2.578l8.949-24.427h.208L110.939,41.5c.206,1.513-1.033,3.027-2.2,3.978v.169h18.173v-.169c-3.028-2.185-3.373-5.322-3.787-8.461" transform="translate(47.581 6.179)" fill="#ffcd00"></path>
      <path id="Tracciato_50" data-name="Tracciato 50" d="M118.755,39.391v-31h-.218a10.6,10.6,0,0,1-4.952.89h-9.9v.177c2.693,1.837,2.476,3.557,2.476,6.343V39.391c0,2.725.216,4.443-2.548,6.341v.179H121.3v-.179c-2.768-1.9-2.549-3.616-2.549-6.341" transform="translate(72.958 5.911)" fill="#ffcd00"></path>
      <path id="Tracciato_51" data-name="Tracciato 51" d="M35.171,39.391v-31h-.218A10.6,10.6,0,0,1,30,9.284H20.1v.177c2.693,1.837,2.476,3.557,2.476,6.343V39.391c0,2.725.216,4.443-2.548,6.341v.179H37.72v-.179c-2.768-1.9-2.549-3.616-2.549-6.341" transform="translate(14.101 5.911)" fill="#ffcd00"></path>
      <path id="Tracciato_52" data-name="Tracciato 52" d="M4.371,46.223a6.063,6.063,0,0,1-1.68-.244,5.384,5.384,0,0,1-1.481-.663L.6,45.9H0l.75-4.269h.607a7.164,7.164,0,0,0,.312,1.3,4.783,4.783,0,0,0,.588,1.2,3.1,3.1,0,0,0,.9.9,2.214,2.214,0,0,0,1.246.358A2.274,2.274,0,0,0,6.04,44.8a2.037,2.037,0,0,0,.615-1.546,1.769,1.769,0,0,0-.349-1.084,2.727,2.727,0,0,0-1.128-.8c-.331-.138-.649-.273-.959-.4s-.6-.264-.879-.4a2.779,2.779,0,0,1-1.246-1.162,3.264,3.264,0,0,1-.418-1.6,3.817,3.817,0,0,1,.305-1.5A4,4,0,0,1,2.856,35a4.155,4.155,0,0,1,1.384-.895,4.723,4.723,0,0,1,1.806-.339,4.886,4.886,0,0,1,1.626.281,5.321,5.321,0,0,1,1.19.544l.53-.5h.617l-.736,4.027H8.666A9.624,9.624,0,0,0,8.4,36.784a4.388,4.388,0,0,0-.477-1.126,2.391,2.391,0,0,0-.74-.77A1.893,1.893,0,0,0,6.118,34.6a1.964,1.964,0,0,0-1.438.567A1.91,1.91,0,0,0,4.1,36.591a1.676,1.676,0,0,0,.346,1.05,2.8,2.8,0,0,0,1.1.784q.44.192.922.4c.319.135.627.276.919.419a3.281,3.281,0,0,1,1.293,1.089,2.791,2.791,0,0,1,.475,1.629,4.1,4.1,0,0,1-.348,1.673,3.939,3.939,0,0,1-.97,1.35A4.563,4.563,0,0,1,6.3,45.9a5.564,5.564,0,0,1-1.931.32" transform="translate(0 23.776)" fill="#fff"></path>
      <path id="Tracciato_53" data-name="Tracciato 53" d="M11.307,43h-.049A6.227,6.227,0,0,1,9.843,44.2a3.049,3.049,0,0,1-1.554.387,1.5,1.5,0,0,1-1.213-.508,1.858,1.858,0,0,1-.428-1.234c0-.172.009-.348.024-.523a6.59,6.59,0,0,1,.131-.752l.532-2.342c.032-.155.072-.368.116-.636A3.929,3.929,0,0,0,7.519,38a1.009,1.009,0,0,0-.158-.646.8.8,0,0,0-.62-.189,1.419,1.419,0,0,0-.464.084c-.158.055-.293.109-.407.158l.155-.75q.573-.274,1.1-.47a2.84,2.84,0,0,1,.99-.194,1.666,1.666,0,0,1,1.3.5,1.747,1.747,0,0,1,.457,1.229c0,.1-.01.283-.027.55a4.518,4.518,0,0,1-.114.74L9.209,41.22a5.194,5.194,0,0,0-.114.629,4.721,4.721,0,0,0-.043.486,1.074,1.074,0,0,0,.157.622.6.6,0,0,0,.537.228,1.546,1.546,0,0,0,.731-.274,3.862,3.862,0,0,0,.9-.781l1.167-6,2.256-.118.085.118-1,5.111c-.034.162-.072.375-.118.641a3.975,3.975,0,0,0-.066.591.9.9,0,0,0,.181.654.893.893,0,0,0,.632.176,1.614,1.614,0,0,0,.479-.087,2.334,2.334,0,0,0,.39-.155l-.157.75c-.467.216-.838.38-1.118.494a2.546,2.546,0,0,1-.97.17A1.732,1.732,0,0,1,11.307,43" transform="translate(4.133 25.341)" fill="#fff"></path>
      <path id="Tracciato_54" data-name="Tracciato 54" d="M15.285,44.65a3.322,3.322,0,0,1-2.534-.958,3.656,3.656,0,0,1-.91-2.628,6.251,6.251,0,0,1,.29-1.912,5.062,5.062,0,0,1,.891-1.641,4.313,4.313,0,0,1,3.395-1.581,2.954,2.954,0,0,1,1.914.54,1.819,1.819,0,0,1,.661,1.489,2.724,2.724,0,0,1-.07.574,1.678,1.678,0,0,1-.213.533,1.507,1.507,0,0,1-.385.407,1.116,1.116,0,0,1-.627.141,1.138,1.138,0,0,1-.859-.32.968.968,0,0,1-.308-.67,2.443,2.443,0,0,1,.148-.825,8.129,8.129,0,0,1,.377-.855.969.969,0,0,0-.257-.225.883.883,0,0,0-.506-.133q-.828,0-1.374,1.178a6.926,6.926,0,0,0-.544,2.916,3.922,3.922,0,0,0,.414,2.006,1.3,1.3,0,0,0,1.176.682,2.246,2.246,0,0,0,1.3-.354,4.122,4.122,0,0,0,1.065-1.21l.51.508a4.792,4.792,0,0,1-1.535,1.7,3.553,3.553,0,0,1-2.016.641" transform="translate(8.338 25.3)" fill="#fff"></path>
      <path id="Tracciato_55" data-name="Tracciato 55" d="M19.838,44.65a3.322,3.322,0,0,1-2.534-.958,3.656,3.656,0,0,1-.91-2.628,6.251,6.251,0,0,1,.29-1.912,5.062,5.062,0,0,1,.891-1.641A4.313,4.313,0,0,1,20.97,35.93a2.954,2.954,0,0,1,1.914.54,1.819,1.819,0,0,1,.661,1.489,2.724,2.724,0,0,1-.07.574,1.678,1.678,0,0,1-.213.533,1.507,1.507,0,0,1-.385.407,1.116,1.116,0,0,1-.627.141,1.138,1.138,0,0,1-.859-.32.968.968,0,0,1-.308-.67,2.443,2.443,0,0,1,.148-.825,8.129,8.129,0,0,1,.377-.855.969.969,0,0,0-.257-.225.883.883,0,0,0-.506-.133q-.828,0-1.374,1.178a6.926,6.926,0,0,0-.544,2.916,3.923,3.923,0,0,0,.414,2.006,1.3,1.3,0,0,0,1.176.682,2.246,2.246,0,0,0,1.3-.354A4.122,4.122,0,0,0,22.88,41.8l.51.508a4.792,4.792,0,0,1-1.535,1.7,3.553,3.553,0,0,1-2.016.641" transform="translate(11.544 25.3)" fill="#fff"></path>
      <path id="Tracciato_56" data-name="Tracciato 56" d="M29.2,39.4a5.953,5.953,0,0,1-.339,2.006,5.051,5.051,0,0,1-.963,1.663,4.677,4.677,0,0,1-1.575,1.169,4.793,4.793,0,0,1-2.025.412,3.254,3.254,0,0,1-2.434-.946,3.513,3.513,0,0,1-.927-2.575,5.934,5.934,0,0,1,.349-2.055,5.1,5.1,0,0,1,.982-1.655,4.436,4.436,0,0,1,1.527-1.094,4.749,4.749,0,0,1,1.958-.4,3.408,3.408,0,0,1,2.522.92A3.446,3.446,0,0,1,29.2,39.4m-2.49-.941a2.836,2.836,0,0,0-.279-1.431.894.894,0,0,0-.811-.457,1.323,1.323,0,0,0-1,.51,3.9,3.9,0,0,0-.734,1.5,10.072,10.072,0,0,0-.354,1.786,16.014,16.014,0,0,0-.106,1.718,2.858,2.858,0,0,0,.283,1.46.912.912,0,0,0,.821.453,1.24,1.24,0,0,0,1-.557,4.322,4.322,0,0,0,.671-1.374,10.663,10.663,0,0,0,.375-1.767,14.146,14.146,0,0,0,.128-1.844" transform="translate(14.741 25.293)" fill="#fff"></path>
      <path id="Tracciato_57" data-name="Tracciato 57" d="M33.455,45.167H33.4c-.164.165-.322.317-.474.455a3.356,3.356,0,0,1-.581.414,3.7,3.7,0,0,1-.648.308,2.432,2.432,0,0,1-2.58-.74,3.871,3.871,0,0,1-.624-2.331,6.577,6.577,0,0,1,.339-2.137,6.091,6.091,0,0,1,.92-1.755,4.369,4.369,0,0,1,1.36-1.184,3.336,3.336,0,0,1,1.648-.436,3.225,3.225,0,0,1,1.089.162,2.164,2.164,0,0,1,.729.429l.525-2.7c.014-.078.026-.162.037-.254a1.807,1.807,0,0,0,.019-.22.861.861,0,0,0-.121-.467.811.811,0,0,0-.332-.3,1.6,1.6,0,0,0-.453-.157c-.169-.034-.356-.063-.559-.092l.13-.615,3.962-.216.078.133-1.9,9.678c-.032.16-.072.372-.116.637a3.9,3.9,0,0,0-.066.593.922.922,0,0,0,.179.654.9.9,0,0,0,.634.179,1.571,1.571,0,0,0,.477-.092,3.26,3.26,0,0,0,.392-.15l-.155.748c-.465.216-.838.382-1.115.5a2.531,2.531,0,0,1-.968.17,1.858,1.858,0,0,1-1.162-.336,1.74,1.74,0,0,1-.6-.871m.828-5.327a2.216,2.216,0,0,0-.046-.428,1.2,1.2,0,0,0-.182-.419,1.015,1.015,0,0,0-.331-.329,1.037,1.037,0,0,0-.539-.121,1.178,1.178,0,0,0-.845.4,3.555,3.555,0,0,0-.7,1.077,6.872,6.872,0,0,0-.452,1.5,9.252,9.252,0,0,0-.17,1.791,5.014,5.014,0,0,0,.053.758,2,2,0,0,0,.174.588.908.908,0,0,0,.884.542,1.162,1.162,0,0,0,.663-.228,2.824,2.824,0,0,0,.591-.561Z" transform="translate(20.061 23.467)" fill="#fff"></path>
      <path id="Tracciato_58" data-name="Tracciato 58" d="M38.781,45.018l-.155.748c-.467.216-.84.382-1.116.494a2.513,2.513,0,0,1-.97.172,1.752,1.752,0,0,1-1.321-.487,1.71,1.71,0,0,1-.469-1.236,5.082,5.082,0,0,1,.036-.595c.024-.2.061-.431.112-.687L35.486,41c.049-.233.1-.453.13-.663a3.366,3.366,0,0,0,.053-.569.97.97,0,0,0-.164-.649.823.823,0,0,0-.622-.182,1.392,1.392,0,0,0-.464.082c-.162.056-.295.109-.411.158l.155-.748c.385-.184.75-.339,1.1-.472a2.856,2.856,0,0,1,.992-.194,1.71,1.71,0,0,1,1.3.477,1.73,1.73,0,0,1,.457,1.246c0,.1-.01.291-.032.557a4.023,4.023,0,0,1-.116.733L37.278,43.2c-.048.194-.089.416-.126.665a3.964,3.964,0,0,0-.058.566.909.909,0,0,0,.182.658.929.929,0,0,0,.636.176,1.674,1.674,0,0,0,.484-.087,2.458,2.458,0,0,0,.385-.155m.15-10.16a1.555,1.555,0,0,1-.406,1.079,1.306,1.306,0,0,1-1.963,0,1.621,1.621,0,0,1,0-2.161,1.3,1.3,0,0,1,1.963,0,1.566,1.566,0,0,1,.406,1.082" transform="translate(23.947 23.467)" fill="#fff"></path>
      <path id="Tracciato_59" data-name="Tracciato 59" d="M49.074,41.978l-.941,3.787H38.888l.121-.608a5.281,5.281,0,0,0,.527-.061,2.616,2.616,0,0,0,.521-.121.843.843,0,0,0,.423-.325,1.381,1.381,0,0,0,.2-.506L42.3,35.888c.024-.118.041-.213.051-.291a1.716,1.716,0,0,0,.012-.176.614.614,0,0,0-.3-.544,2.737,2.737,0,0,0-.98-.314l.119-.607h5.513l-.119.607c-.152.012-.344.037-.581.08a3.386,3.386,0,0,0-.537.128.774.774,0,0,0-.431.346,1.776,1.776,0,0,0-.193.5l-1.534,7.846c-.032.162-.058.319-.077.469a2.831,2.831,0,0,0-.029.354.615.615,0,0,0,.3.622,3.6,3.6,0,0,0,1.229.136,6.4,6.4,0,0,0,1.125-.1,1.553,1.553,0,0,0,.833-.366,7.625,7.625,0,0,0,.978-1.195,15.194,15.194,0,0,0,.876-1.409Z" transform="translate(27.383 23.911)" fill="#fff"></path>
      <path id="Tracciato_60" data-name="Tracciato 60" d="M49.875,45.018l-.155.748q-.7.325-1.118.494a2.5,2.5,0,0,1-.968.172,1.752,1.752,0,0,1-1.321-.487,1.71,1.71,0,0,1-.469-1.236,5.472,5.472,0,0,1,.034-.595c.024-.2.063-.431.114-.687L46.578,41c.051-.233.1-.453.131-.663a3.552,3.552,0,0,0,.053-.569.98.98,0,0,0-.164-.649.828.828,0,0,0-.624-.182,1.407,1.407,0,0,0-.464.082c-.16.056-.295.109-.409.158l.155-.748c.383-.184.75-.339,1.1-.472a2.848,2.848,0,0,1,.99-.194A1.613,1.613,0,0,1,49.1,39.484c0,.1-.01.291-.032.557a4.176,4.176,0,0,1-.116.733L48.372,43.2c-.048.194-.089.416-.128.665a4.169,4.169,0,0,0-.056.566.909.909,0,0,0,.182.658.923.923,0,0,0,.636.176,1.654,1.654,0,0,0,.482-.087,2.568,2.568,0,0,0,.387-.155m.15-10.16a1.549,1.549,0,0,1-.407,1.079,1.306,1.306,0,0,1-1.963,0,1.627,1.627,0,0,1,0-2.161,1.3,1.3,0,0,1,1.963,0,1.56,1.56,0,0,1,.407,1.082" transform="translate(31.759 23.467)" fill="#fff"></path>
      <path id="Tracciato_61" data-name="Tracciato 61" d="M62.277,43.1l-.157.748q-.7.325-1.12.494a2.507,2.507,0,0,1-.97.172,1.652,1.652,0,0,1-1.777-1.723c0-.133.005-.3.015-.511a5.316,5.316,0,0,1,.119-.777l.513-2.214c.051-.239.09-.455.116-.644a3.477,3.477,0,0,0,.039-.472,1.02,1.02,0,0,0-.169-.624.648.648,0,0,0-.552-.225,1.322,1.322,0,0,0-.68.283,4.716,4.716,0,0,0-.837.758l-1.174,6.007H53.308L54.3,39.3c.053-.279.09-.5.118-.675a3.342,3.342,0,0,0,.037-.45,1.02,1.02,0,0,0-.169-.624.655.655,0,0,0-.559-.225,1.43,1.43,0,0,0-.607.208,4.263,4.263,0,0,0-.975.833L50.97,44.376H48.633l1.005-5.118c.029-.155.065-.361.109-.615a3.835,3.835,0,0,0,.068-.617,1.017,1.017,0,0,0-.157-.653.807.807,0,0,0-.617-.179,1.417,1.417,0,0,0-.462.084c-.158.055-.295.109-.407.158l.155-.75q.573-.274,1.1-.469a2.806,2.806,0,0,1,.99-.2,1.628,1.628,0,0,1,1.246.412,2.316,2.316,0,0,1,.537,1.06h.049a6.535,6.535,0,0,1,1.367-1.166,2.858,2.858,0,0,1,1.513-.4,1.64,1.64,0,0,1,1.2.458,1.711,1.711,0,0,1,.516,1.132h.049A8.331,8.331,0,0,1,58.3,36.341a2.734,2.734,0,0,1,1.484-.411,1.554,1.554,0,0,1,1.23.508,1.794,1.794,0,0,1,.446,1.232c0,.128-.009.305-.026.535a4.767,4.767,0,0,1-.116.738l-.535,2.338c-.046.194-.089.416-.126.665a4.1,4.1,0,0,0-.055.566.91.91,0,0,0,.179.658.9.9,0,0,0,.631.176,1.633,1.633,0,0,0,.479-.087,2.529,2.529,0,0,0,.389-.155" transform="translate(33.921 25.3)" fill="#fff"></path>
      <path id="Tracciato_62" data-name="Tracciato 62" d="M65.109,39.4A5.952,5.952,0,0,1,64.77,41.4a5.051,5.051,0,0,1-.963,1.663,4.678,4.678,0,0,1-1.575,1.169,4.793,4.793,0,0,1-2.025.412,3.254,3.254,0,0,1-2.434-.946,3.513,3.513,0,0,1-.927-2.575,5.934,5.934,0,0,1,.349-2.055,5.105,5.105,0,0,1,.982-1.655A4.436,4.436,0,0,1,59.7,36.324a4.749,4.749,0,0,1,1.958-.4,3.408,3.408,0,0,1,2.522.92,3.446,3.446,0,0,1,.924,2.558m-2.49-.941a2.836,2.836,0,0,0-.279-1.431.894.894,0,0,0-.811-.457,1.323,1.323,0,0,0-1,.51,3.9,3.9,0,0,0-.734,1.5,10.072,10.072,0,0,0-.354,1.786,16.014,16.014,0,0,0-.106,1.718,2.858,2.858,0,0,0,.283,1.46.912.912,0,0,0,.821.453,1.24,1.24,0,0,0,1-.557,4.322,4.322,0,0,0,.671-1.374,10.663,10.663,0,0,0,.375-1.767,14.146,14.146,0,0,0,.128-1.844" transform="translate(40.029 25.293)" fill="#fff"></path>
      <path id="Tracciato_63" data-name="Tracciato 63" d="M71.677,43.1l-.157.748q-.7.325-1.118.494a2.522,2.522,0,0,1-.971.172,1.652,1.652,0,0,1-1.777-1.723c0-.133.005-.3.015-.511a5.318,5.318,0,0,1,.119-.777l.513-2.214c.053-.239.09-.455.118-.644a3.726,3.726,0,0,0,.037-.472,1.056,1.056,0,0,0-.16-.624.639.639,0,0,0-.552-.225,1.7,1.7,0,0,0-.685.222,3.653,3.653,0,0,0-1,.82l-1.172,6.007H62.553l1.005-5.118c.029-.155.065-.358.111-.607a3.9,3.9,0,0,0,.066-.625.961.961,0,0,0-.167-.653.809.809,0,0,0-.6-.179,1.426,1.426,0,0,0-.464.084c-.158.055-.295.109-.407.158l.157-.75c.38-.182.746-.339,1.1-.469a2.82,2.82,0,0,1,.99-.2,1.777,1.777,0,0,1,1.249.385,1.958,1.958,0,0,1,.549,1.087h.049a5.982,5.982,0,0,1,1.432-1.154,3.2,3.2,0,0,1,1.573-.411,1.542,1.542,0,0,1,1.227.508,1.808,1.808,0,0,1,.443,1.232c0,.128-.009.305-.026.535a4.767,4.767,0,0,1-.116.738l-.539,2.338q-.072.291-.128.665a4.168,4.168,0,0,0-.056.566.678.678,0,0,0,.813.833,1.634,1.634,0,0,0,.481-.087,2.494,2.494,0,0,0,.39-.155" transform="translate(43.723 25.3)" fill="#fff"></path>
      <path id="Tracciato_64" data-name="Tracciato 64" d="M71.494,44.65A3.79,3.79,0,0,1,70,44.379a2.828,2.828,0,0,1-1.058-.752,3.244,3.244,0,0,1-.613-1.125,4.634,4.634,0,0,1-.2-1.414,5.927,5.927,0,0,1,.31-1.905,5.193,5.193,0,0,1,.925-1.663,4.409,4.409,0,0,1,1.472-1.149A4.357,4.357,0,0,1,72.8,35.93a3.3,3.3,0,0,1,1.927.474,1.636,1.636,0,0,1,.661,1.423,2.283,2.283,0,0,1-.573,1.559,3.411,3.411,0,0,1-1.556.971,11.208,11.208,0,0,1-1.328.39q-.547.118-1.339.216a6.961,6.961,0,0,0,.085.825,3.147,3.147,0,0,0,.211.781,1.435,1.435,0,0,0,.481.595,1.335,1.335,0,0,0,.792.222,2.543,2.543,0,0,0,1.418-.378A3.929,3.929,0,0,0,74.7,41.8l.516.508a5.05,5.05,0,0,1-1.631,1.7,3.8,3.8,0,0,1-2.089.637m1.6-6.59a2.2,2.2,0,0,0-.22-1.087.675.675,0,0,0-.607-.377q-.544,0-1.031,1.043a7.9,7.9,0,0,0-.617,2.643c.278-.039.552-.089.827-.15a2.782,2.782,0,0,0,.651-.216,1.758,1.758,0,0,0,.763-.707,2.427,2.427,0,0,0,.233-1.149" transform="translate(47.973 25.3)" fill="#fff"></path>
      <path id="Tracciato_65" data-name="Tracciato 65" d="M79.966,45.167h-.06c-.164.165-.322.317-.474.455a3.355,3.355,0,0,1-.581.414,3.7,3.7,0,0,1-.648.308,2.432,2.432,0,0,1-2.58-.74A3.871,3.871,0,0,1,75,43.274a6.577,6.577,0,0,1,.339-2.137,6.091,6.091,0,0,1,.92-1.755,4.369,4.369,0,0,1,1.36-1.184,3.336,3.336,0,0,1,1.648-.436,3.225,3.225,0,0,1,1.089.162,2.164,2.164,0,0,1,.729.429l.525-2.7c.014-.078.026-.162.038-.254a1.81,1.81,0,0,0,.019-.22.861.861,0,0,0-.121-.467.811.811,0,0,0-.332-.3,1.6,1.6,0,0,0-.453-.157c-.169-.034-.356-.063-.559-.092l.13-.615,3.962-.216.078.133-1.9,9.678c-.032.16-.072.372-.116.637a3.9,3.9,0,0,0-.066.593.922.922,0,0,0,.179.654.9.9,0,0,0,.634.179,1.571,1.571,0,0,0,.477-.092,3.261,3.261,0,0,0,.392-.15l-.155.748c-.465.216-.838.382-1.115.5a2.531,2.531,0,0,1-.968.17,1.858,1.858,0,0,1-1.162-.336,1.739,1.739,0,0,1-.6-.871m.828-5.327a2.217,2.217,0,0,0-.046-.428,1.2,1.2,0,0,0-.182-.419,1.015,1.015,0,0,0-.331-.329,1.037,1.037,0,0,0-.539-.121,1.178,1.178,0,0,0-.845.4,3.555,3.555,0,0,0-.7,1.077,6.872,6.872,0,0,0-.452,1.5,9.251,9.251,0,0,0-.17,1.791,5.015,5.015,0,0,0,.053.758,2,2,0,0,0,.174.588.908.908,0,0,0,.884.542,1.162,1.162,0,0,0,.663-.228A2.824,2.824,0,0,0,79.9,44.4Z" transform="translate(52.812 23.467)" fill="#fff"></path>
      <path id="Tracciato_66" data-name="Tracciato 66" d="M85.293,45.018l-.155.748q-.7.325-1.118.494a2.5,2.5,0,0,1-.968.172,1.752,1.752,0,0,1-1.321-.487,1.71,1.71,0,0,1-.469-1.236,5.472,5.472,0,0,1,.034-.595c.024-.2.063-.431.114-.687L82,41c.051-.233.1-.453.131-.663a3.552,3.552,0,0,0,.053-.569.98.98,0,0,0-.164-.649.828.828,0,0,0-.624-.182,1.407,1.407,0,0,0-.464.082c-.16.056-.295.109-.409.158l.155-.748c.383-.184.75-.339,1.1-.472a2.848,2.848,0,0,1,.99-.194,1.613,1.613,0,0,1,1.755,1.723c0,.1-.01.291-.032.557a4.175,4.175,0,0,1-.116.733L83.79,43.2c-.048.194-.089.416-.128.665a4.17,4.17,0,0,0-.056.566.909.909,0,0,0,.182.658.923.923,0,0,0,.636.176,1.654,1.654,0,0,0,.482-.087,2.569,2.569,0,0,0,.387-.155m.15-10.16a1.548,1.548,0,0,1-.407,1.079,1.306,1.306,0,0,1-1.963,0,1.626,1.626,0,0,1,0-2.161,1.3,1.3,0,0,1,1.963,0,1.56,1.56,0,0,1,.407,1.082" transform="translate(56.699 23.467)" fill="#fff"></path>
      <path id="Tracciato_67" data-name="Tracciato 67" d="M89.822,46.223a6.063,6.063,0,0,1-1.68-.244,5.384,5.384,0,0,1-1.481-.663l-.61.583h-.6l.75-4.269h.607a7.163,7.163,0,0,0,.312,1.3,4.783,4.783,0,0,0,.588,1.2,3.1,3.1,0,0,0,.9.9,2.214,2.214,0,0,0,1.246.358,2.274,2.274,0,0,0,1.639-.588,2.037,2.037,0,0,0,.615-1.546,1.769,1.769,0,0,0-.349-1.084,2.727,2.727,0,0,0-1.128-.8c-.331-.138-.649-.273-.959-.4s-.6-.264-.879-.4a2.779,2.779,0,0,1-1.246-1.162,3.263,3.263,0,0,1-.418-1.6,3.817,3.817,0,0,1,.305-1.5A4,4,0,0,1,88.307,35a4.155,4.155,0,0,1,1.384-.895,4.723,4.723,0,0,1,1.806-.339,4.886,4.886,0,0,1,1.626.281,5.321,5.321,0,0,1,1.189.544l.53-.5h.617l-.736,4.027h-.607a9.622,9.622,0,0,0-.268-1.334,4.388,4.388,0,0,0-.477-1.126,2.391,2.391,0,0,0-.74-.77,1.893,1.893,0,0,0-1.063-.288,1.964,1.964,0,0,0-1.438.567,1.91,1.91,0,0,0-.578,1.425,1.676,1.676,0,0,0,.346,1.05,2.8,2.8,0,0,0,1.1.784q.44.192.922.4c.319.135.627.276.919.419a3.281,3.281,0,0,1,1.293,1.089,2.791,2.791,0,0,1,.475,1.629,4.1,4.1,0,0,1-.348,1.673,3.939,3.939,0,0,1-.97,1.35,4.563,4.563,0,0,1-1.534.922,5.564,5.564,0,0,1-1.931.32" transform="translate(60.171 23.776)" fill="#fff"></path>
      <path id="Tracciato_68" data-name="Tracciato 68" d="M96.109,45.018l-.155.748q-.7.325-1.118.494a2.5,2.5,0,0,1-.968.172,1.752,1.752,0,0,1-1.321-.487,1.71,1.71,0,0,1-.469-1.236,5.472,5.472,0,0,1,.034-.595c.024-.2.063-.431.114-.687L92.812,41c.051-.233.1-.453.131-.663A3.552,3.552,0,0,0,93,39.767a.98.98,0,0,0-.164-.649.828.828,0,0,0-.624-.182,1.407,1.407,0,0,0-.464.082c-.16.056-.295.109-.409.158l.155-.748c.383-.184.75-.339,1.1-.472a2.848,2.848,0,0,1,.99-.194,1.613,1.613,0,0,1,1.755,1.723c0,.1-.01.291-.032.557a4.176,4.176,0,0,1-.116.733L94.606,43.2c-.048.194-.089.416-.128.665a4.165,4.165,0,0,0-.056.566.909.909,0,0,0,.182.658.924.924,0,0,0,.636.176,1.654,1.654,0,0,0,.482-.087,2.568,2.568,0,0,0,.387-.155m.15-10.16a1.549,1.549,0,0,1-.407,1.079,1.306,1.306,0,0,1-1.963,0,1.627,1.627,0,0,1,0-2.161,1.3,1.3,0,0,1,1.963,0,1.56,1.56,0,0,1,.407,1.082" transform="translate(64.315 23.467)" fill="#fff"></path>
      <path id="Tracciato_69" data-name="Tracciato 69" d="M98.021,44.65a3.322,3.322,0,0,1-2.534-.958,3.656,3.656,0,0,1-.91-2.628,6.251,6.251,0,0,1,.29-1.912,5.063,5.063,0,0,1,.891-1.641,4.313,4.313,0,0,1,3.395-1.581,2.954,2.954,0,0,1,1.914.54,1.819,1.819,0,0,1,.661,1.489,2.723,2.723,0,0,1-.07.574,1.678,1.678,0,0,1-.213.533,1.508,1.508,0,0,1-.385.407,1.116,1.116,0,0,1-.627.141,1.137,1.137,0,0,1-.859-.32.968.968,0,0,1-.308-.67,2.443,2.443,0,0,1,.148-.825,8.124,8.124,0,0,1,.377-.855.969.969,0,0,0-.257-.225.883.883,0,0,0-.506-.133q-.828,0-1.374,1.178a6.926,6.926,0,0,0-.544,2.916,3.922,3.922,0,0,0,.414,2.006,1.3,1.3,0,0,0,1.176.682,2.246,2.246,0,0,0,1.3-.354,4.122,4.122,0,0,0,1.065-1.21l.51.508a4.792,4.792,0,0,1-1.535,1.7,3.553,3.553,0,0,1-2.016.641" transform="translate(66.597 25.3)" fill="#fff"></path>
      <path id="Tracciato_70" data-name="Tracciato 70" d="M103.77,45.018l-.155.748q-.7.325-1.118.494a2.5,2.5,0,0,1-.968.172,1.752,1.752,0,0,1-1.321-.487,1.71,1.71,0,0,1-.469-1.236,5.472,5.472,0,0,1,.034-.595c.024-.2.063-.431.114-.687L100.473,41c.051-.233.1-.453.131-.663a3.552,3.552,0,0,0,.053-.569.98.98,0,0,0-.164-.649.828.828,0,0,0-.624-.182,1.407,1.407,0,0,0-.464.082c-.16.056-.295.109-.409.158l.155-.748c.383-.184.75-.339,1.1-.472a2.847,2.847,0,0,1,.99-.194A1.613,1.613,0,0,1,103,39.484c0,.1-.01.291-.032.557a4.176,4.176,0,0,1-.116.733l-.581,2.422c-.048.194-.089.416-.128.665a4.168,4.168,0,0,0-.056.566.909.909,0,0,0,.182.658.923.923,0,0,0,.636.176,1.654,1.654,0,0,0,.482-.087,2.568,2.568,0,0,0,.387-.155m.15-10.16a1.548,1.548,0,0,1-.407,1.079,1.306,1.306,0,0,1-1.963,0,1.626,1.626,0,0,1,0-2.161,1.3,1.3,0,0,1,1.963,0,1.56,1.56,0,0,1,.407,1.082" transform="translate(69.71 23.467)" fill="#fff"></path>
      <path id="Tracciato_71" data-name="Tracciato 71" d="M106.881,33.46l-1.9,9.736c-.034.162-.072.375-.118.641a3.975,3.975,0,0,0-.066.591.839.839,0,0,0,.2.656,1.033,1.033,0,0,0,.677.176,1.924,1.924,0,0,0,.477-.087,2.423,2.423,0,0,0,.429-.155l-.155.75c-.467.216-.849.38-1.145.494a2.808,2.808,0,0,1-1.012.17,1.8,1.8,0,0,1-1.336-.487,1.664,1.664,0,0,1-.489-1.234,4.4,4.4,0,0,1,.048-.641c.029-.222.065-.436.1-.641l1.529-7.814c.019-.1.032-.184.043-.268s.014-.152.014-.208a1.1,1.1,0,0,0-.085-.474.688.688,0,0,0-.254-.283,1.143,1.143,0,0,0-.39-.15c-.145-.029-.314-.053-.508-.075l.128-.615,3.734-.216Z" transform="translate(72.138 23.467)" fill="#fff"></path>
      <path id="Tracciato_72" data-name="Tracciato 72" d="M109.892,45.018l-.155.748q-.7.325-1.118.494a2.5,2.5,0,0,1-.968.172,1.752,1.752,0,0,1-1.321-.487,1.71,1.71,0,0,1-.469-1.236,5.472,5.472,0,0,1,.034-.595c.024-.2.063-.431.114-.687L106.595,41c.051-.233.1-.453.131-.663a3.55,3.55,0,0,0,.053-.569.98.98,0,0,0-.164-.649.828.828,0,0,0-.624-.182,1.407,1.407,0,0,0-.464.082c-.16.056-.295.109-.409.158l.155-.748c.383-.184.75-.339,1.1-.472a2.847,2.847,0,0,1,.99-.194,1.613,1.613,0,0,1,1.755,1.723c0,.1-.01.291-.032.557a4.176,4.176,0,0,1-.116.733l-.581,2.422c-.048.194-.089.416-.128.665a4.168,4.168,0,0,0-.056.566.909.909,0,0,0,.182.658.923.923,0,0,0,.636.176,1.654,1.654,0,0,0,.482-.087,2.568,2.568,0,0,0,.387-.155m.15-10.16a1.548,1.548,0,0,1-.407,1.079,1.306,1.306,0,0,1-1.963,0,1.627,1.627,0,0,1,0-2.161,1.3,1.3,0,0,1,1.963,0,1.56,1.56,0,0,1,.407,1.082" transform="translate(74.02 23.467)" fill="#fff"></path>
      <path id="Tracciato_73" data-name="Tracciato 73" d="M113.259,43.336H113.2c-.167.164-.324.315-.472.453a3.49,3.49,0,0,1-.562.414,3.409,3.409,0,0,1-.625.3,2.107,2.107,0,0,1-.726.121,2.156,2.156,0,0,1-1.856-.852,3.888,3.888,0,0,1-.622-2.333,6.46,6.46,0,0,1,.348-2.137,6.246,6.246,0,0,1,.927-1.754,4.534,4.534,0,0,1,1.374-1.184,3.349,3.349,0,0,1,1.656-.436,3.221,3.221,0,0,1,1.115.176,2.155,2.155,0,0,1,.782.474l2.168-.525.1.133L115.767,41.3c-.039.172-.078.389-.123.644a4.2,4.2,0,0,0-.063.588.685.685,0,0,0,.821.832,1.562,1.562,0,0,0,.477-.09,3.588,3.588,0,0,0,.392-.15l-.153.748c-.469.216-.842.382-1.123.5a2.588,2.588,0,0,1-.971.17,1.858,1.858,0,0,1-1.162-.337,1.741,1.741,0,0,1-.6-.869m.842-5.278a2.772,2.772,0,0,0-.043-.433,1.223,1.223,0,0,0-.148-.423.871.871,0,0,0-.334-.329,1.065,1.065,0,0,0-.508-.112,1.187,1.187,0,0,0-.861.4,3.63,3.63,0,0,0-.7,1.051,6.775,6.775,0,0,0-.467,1.508,9.111,9.111,0,0,0-.17,1.757,4.757,4.757,0,0,0,.055.757,1.946,1.946,0,0,0,.172.59.91.91,0,0,0,.886.54,1.073,1.073,0,0,0,.641-.227,3.066,3.066,0,0,0,.571-.562Z" transform="translate(76.288 25.3)" fill="#fff"></path>
    </g>
  </g>
</svg>
